<svg width="983" height="967" viewBox="0 0 983 967" fill="none" xmlns="http://www.w3.org/2000/svg">
<mask id="mask0_165_58128" style="mask-type:luminance" maskUnits="userSpaceOnUse" x="-736" y="0" width="1719" height="967">
<path d="M982.889 0H-736V966.875H982.889V0Z" fill="white"/>
</mask>
<g mask="url(#mask0_165_58128)">
<mask id="mask1_165_58128" style="mask-type:luminance" maskUnits="userSpaceOnUse" x="-893" y="-33" width="1806" height="1017">
<path d="M-892.503 -32.0371H912.331V983.182H-892.503V-32.0371Z" fill="white"/>
</mask>
<g mask="url(#mask1_165_58128)">
<path d="M356.586 889.774C425.776 871.009 495.856 922.943 587.804 940.155C658.429 953.377 768.972 909.821 768.972 757.878C768.972 648.666 831.735 517.558 803.516 460.259C755.176 362.109 685.229 394.387 595.932 296.16C506.635 197.933 516.305 24.7812 348.595 24.7812C204.481 24.7812 122.306 171.446 44.8951 218.876C1.62134 245.389 -85.7787 256.724 -134.5 230.355C-174.93 208.474 -329.097 168.076 -380.761 267.663C-450.593 402.273 -336.534 497.408 -472.754 575.922C-651.161 678.753 -571.125 884.194 -385.066 884.194C-107.761 884.194 -122.157 906.632 21.0054 923.84C85.1052 931.546 162.59 942.389 356.586 889.774Z" fill="#DFDFF5"/>
<path d="M635.56 178.128C624.342 172.239 596.953 159.409 587.654 194.668C578.354 229.926 663.505 299.605 722.819 316.144C782.129 332.682 701.138 212.552 635.56 178.128Z" fill="#DFDFF5"/>
<path d="M362.978 294.756H443.045V223.623H362.978V294.756Z" fill="url(#paint0_linear_165_58128)"/>
<path d="M430.516 208.751L416.22 193.977L401.927 208.751L387.635 193.977L373.342 208.751L359.05 193.977L344.758 208.751L330.469 193.977L316.18 208.751L301.889 193.977L287.599 208.751L273.313 193.977L259.024 208.751L245.47 194.741L243.993 196.172L259.024 211.709L273.313 196.935L287.599 211.709L301.889 196.935L316.18 211.709L330.469 196.935L344.758 211.709L359.05 196.935L373.342 211.709L387.635 196.935L401.927 211.709L416.22 196.935L430.516 211.709L445.549 196.172L444.072 194.741L430.516 208.751Z" fill="url(#paint1_linear_165_58128)"/>
<path d="M430.516 234.115L416.22 219.342L401.927 234.115L387.635 219.342L373.342 234.115L359.05 219.342L344.758 234.115L330.469 219.342L316.18 234.115L301.889 219.342L287.599 234.115L273.313 219.342L259.024 234.115L245.47 220.105L243.993 221.535L259.024 237.074L273.313 222.3L287.599 237.074L301.889 222.3L316.18 237.074L330.469 222.3L344.758 237.074L359.05 222.3L373.342 237.074L387.635 222.3L401.927 237.074L416.22 222.3L430.516 237.074L445.549 221.535L444.072 220.105L430.516 234.115Z" fill="url(#paint2_linear_165_58128)"/>
<path d="M430.516 259.478L416.22 244.705L401.927 259.478L387.635 244.705L373.342 259.478L359.05 244.705L344.758 259.478L330.469 244.705L316.18 259.478L301.889 244.705L287.599 259.478L273.313 244.705L259.024 259.478L245.47 245.469L243.993 246.899L259.024 262.438L273.313 247.664L287.599 262.438L301.889 247.664L316.18 262.438L330.469 247.664L344.758 262.438L359.05 247.664L373.342 262.438L387.635 247.664L401.927 262.438L416.22 247.664L430.516 262.438L445.549 246.899L444.072 245.469L430.516 259.478Z" fill="url(#paint3_linear_165_58128)"/>
<path d="M430.516 284.845L416.22 270.07L401.927 284.845L387.635 270.07L373.342 284.845L359.05 270.07L344.758 284.845L330.469 270.07L316.18 284.845L301.889 270.07L287.599 284.845L273.313 270.07L259.024 284.845L245.47 270.835L243.993 272.264L259.024 287.803L273.313 273.029L287.599 287.803L301.889 273.029L316.18 287.803L330.469 273.029L344.758 287.803L359.05 273.029L373.342 287.803L387.635 273.029L401.927 287.803L416.22 273.029L430.516 287.803L445.549 272.264L444.072 270.835L430.516 284.845Z" fill="url(#paint4_linear_165_58128)"/>
<path d="M430.516 310.21L416.22 295.436L401.927 310.21L387.635 295.436L373.342 310.21L359.05 295.436L344.758 310.21L330.469 295.436L316.18 310.21L301.889 295.436L287.599 310.21L273.313 295.436L259.024 310.21L245.47 296.201L243.993 297.63L259.024 313.168L273.313 298.395L287.599 313.168L301.889 298.395L316.18 313.168L330.469 298.395L344.758 313.168L359.05 298.395L373.342 313.168L387.635 298.395L401.927 313.168L416.22 298.395L430.516 313.168L445.549 297.63L444.072 296.201L430.516 310.21Z" fill="url(#paint5_linear_165_58128)"/>
<path d="M430.516 335.573L416.22 320.799L401.927 335.573L387.635 320.799L373.342 335.573L359.05 320.799L344.758 335.573L330.469 320.799L316.18 335.573L301.889 320.799L287.599 335.573L273.313 320.799L259.024 335.573L245.47 321.564L243.993 322.994L259.024 338.531L273.313 323.757L287.599 338.531L301.889 323.757L316.18 338.531L330.469 323.757L344.758 338.531L359.05 323.757L373.342 338.531L387.635 323.757L401.927 338.531L416.22 323.757L430.516 338.531L445.549 322.994L444.072 321.564L430.516 335.573Z" fill="url(#paint6_linear_165_58128)"/>
<path d="M430.516 360.938L416.22 346.164L401.927 360.938L387.635 346.164L373.342 360.938L359.05 346.164L344.758 360.938L330.469 346.164L316.18 360.938L301.889 346.164L287.599 360.938L273.313 346.164L259.024 360.938L245.47 346.928L243.993 348.359L259.024 363.897L273.313 349.122L287.599 363.897L301.889 349.122L316.18 363.897L330.469 349.122L344.758 363.897L359.05 349.122L373.342 363.897L387.635 349.122L401.927 363.897L416.22 349.122L430.516 363.897L445.549 348.359L444.072 346.928L430.516 360.938Z" fill="url(#paint7_linear_165_58128)"/>
<g style="mix-blend-mode:multiply">
<g style="mix-blend-mode:multiply">
<path d="M675.827 849.617C675.827 859.097 435.382 866.783 138.779 866.783C-157.825 866.783 -398.269 859.097 -398.269 849.617C-398.269 840.139 -157.825 832.453 138.779 832.453C435.382 832.453 675.827 840.139 675.827 849.617Z" fill="url(#paint8_radial_165_58128)"/>
</g>
</g>
<path d="M614.708 761.909C614.605 761.853 614.505 761.785 614.409 761.711C613.803 761.228 613.52 760.447 613.673 759.687L617.377 741.449L598.822 742.891C598.048 742.951 597.308 742.571 596.905 741.911C596.502 741.25 596.502 740.418 596.907 739.757L606.646 723.901L588.717 718.919C587.97 718.711 587.404 718.104 587.25 717.346C587.096 716.585 587.38 715.805 587.986 715.322L602.544 703.732L587.392 692.925C586.763 692.475 586.437 691.708 586.552 690.942C586.667 690.175 587.202 689.538 587.937 689.294L605.589 683.401L595.068 668.057C594.629 667.416 594.588 666.588 594.958 665.906C595.328 665.227 596.045 664.811 596.821 664.831L615.421 665.308L610.762 647.293C610.567 646.543 610.811 645.746 611.391 645.233C611.972 644.72 612.792 644.576 613.512 644.86L630.822 651.696L632.628 633.174C632.704 632.403 633.206 631.739 633.926 631.455C634.646 631.171 635.466 631.315 636.046 631.83L649.977 644.165L657.986 627.367C658.318 626.667 659.016 626.216 659.791 626.195C660.567 626.173 661.286 626.588 661.654 627.27L670.539 643.623L683.827 630.593C684.382 630.051 685.192 629.862 685.926 630.109C686.664 630.354 687.194 630.994 687.309 631.76L690.041 650.169L706.976 642.448C707.677 642.125 708.506 642.224 709.112 642.709C709.72 643.192 710.003 643.974 709.848 644.733L706.144 662.971L724.7 661.531C725.473 661.47 726.211 661.848 726.616 662.51C727.02 663.172 727.019 664.002 726.614 664.662L716.875 680.519L734.804 685.501C735.55 685.71 736.117 686.316 736.272 687.075C736.426 687.834 736.142 688.616 735.536 689.099L720.977 700.689L736.129 711.496C736.76 711.947 737.086 712.712 736.971 713.479C736.856 714.246 736.321 714.882 735.586 715.127L717.933 721.017L728.453 736.363C728.892 737.004 728.935 737.833 728.565 738.513C728.195 739.194 727.476 739.609 726.7 739.589L708.101 739.11L712.759 757.127C712.954 757.875 712.711 758.672 712.131 759.186C711.55 759.698 710.73 759.843 710.009 759.559L692.698 752.725L690.893 771.245C690.818 772.016 690.317 772.68 689.596 772.964C688.875 773.247 688.06 773.104 687.476 772.588L673.544 760.255L665.537 777.053C665.204 777.752 664.507 778.206 663.732 778.227C662.956 778.247 662.235 777.833 661.868 777.152L652.981 760.798L639.694 773.827C639.139 774.369 638.33 774.556 637.595 774.311C636.859 774.065 636.325 773.425 636.213 772.658L633.479 754.252L616.547 761.973C615.953 762.244 615.271 762.214 614.708 761.909ZM620.925 737.373C621.134 737.486 621.324 737.636 621.485 737.818C621.912 738.303 622.089 738.96 621.959 739.594L618.517 756.545L634.263 749.365C634.851 749.096 635.533 749.121 636.1 749.429C636.669 749.738 637.06 750.296 637.154 750.939L639.696 768.055L652.046 755.944C652.507 755.491 653.154 755.281 653.795 755.377C654.434 755.473 654.991 755.862 655.298 756.431L663.556 771.629L671.001 756.01C671.28 755.427 671.817 755.009 672.45 754.881C673.087 754.752 673.743 754.928 674.228 755.356L687.183 766.827L688.863 749.606C688.926 748.961 689.287 748.383 689.839 748.046C690.39 747.709 691.068 747.651 691.67 747.888L707.755 754.239L703.426 737.497C703.263 736.869 703.406 736.204 703.808 735.699C704.211 735.191 704.828 734.904 705.474 734.922L722.774 735.366L712.989 721.093C712.622 720.561 712.528 719.887 712.735 719.272C712.94 718.66 713.421 718.177 714.035 717.974L730.44 712.5L716.359 702.457C715.832 702.081 715.513 701.481 715.496 700.833C715.478 700.188 715.766 699.571 716.273 699.167L729.809 688.389L713.136 683.759C712.513 683.584 712.009 683.131 711.77 682.526C711.533 681.925 711.593 681.246 711.931 680.693L720.986 665.95L703.74 667.29C703.096 667.341 702.464 667.086 702.038 666.602C701.608 666.118 701.432 665.461 701.562 664.827L705.005 647.876L689.26 655.056C688.082 655.592 686.557 654.763 686.368 653.484L683.826 636.366L671.475 648.477C671.014 648.931 670.366 649.14 669.727 649.045C669.088 648.948 668.531 648.559 668.223 647.989L659.965 632.79L652.521 648.408C652.242 648.991 651.704 649.411 651.07 649.54C650.435 649.67 649.779 649.494 649.293 649.063L636.338 637.592L634.657 654.814C634.595 655.46 634.235 656.037 633.682 656.373C633.13 656.711 632.452 656.77 631.85 656.533L615.766 650.18L620.095 666.924C620.258 667.55 620.115 668.215 619.713 668.721C619.31 669.229 618.693 669.517 618.047 669.499L600.75 669.054L610.532 683.328C610.899 683.86 610.993 684.533 610.786 685.148C610.581 685.76 610.101 686.242 609.485 686.447L593.082 691.922L607.162 701.963C607.688 702.339 608.008 702.94 608.025 703.586C608.044 704.233 607.755 704.85 607.247 705.254L593.712 716.031L610.385 720.661C611.008 720.835 611.514 721.291 611.75 721.895C611.987 722.496 611.928 723.174 611.591 723.725L602.536 738.468L619.781 737.13C620.184 737.098 620.58 737.185 620.925 737.373Z" fill="white"/>
<path d="M712.808 482.373L619.794 467.656C617.531 467.298 615.705 465.612 615.171 463.384C614.636 461.156 615.496 458.824 617.35 457.478L671.214 418.33C673.743 416.488 677.29 417.05 679.127 419.581L718.275 473.445C719.622 475.298 719.72 477.782 718.524 479.736C717.328 481.691 715.071 482.731 712.808 482.373ZM635.078 458.602L701.066 469.042L673.291 430.827L635.078 458.602Z" fill="url(#paint9_linear_165_58128)"/>
<path d="M193.541 267.754C193.689 268.54 193.672 269.361 193.472 270.168C192.936 272.318 191.198 273.96 189.02 274.37L87.2717 293.542C85.0944 293.952 82.8774 293.055 81.5966 291.248C80.3155 289.439 80.2072 287.052 81.3197 285.133L121.072 216.518C121.897 215.092 123.303 214.096 124.925 213.79C126.546 213.485 128.218 213.901 129.507 214.928L191.506 264.371C192.588 265.235 193.294 266.444 193.541 267.754ZM97.3228 280.116L174.773 265.523L127.582 227.888L97.3228 280.116Z" fill="url(#paint10_linear_165_58128)"/>
<path d="M625.938 849.228L556.344 848.509C509.948 848.132 463.551 847.791 417.155 847.575C370.76 847.279 324.363 847.213 277.967 847.039L138.779 846.861L-0.410187 847.03C-46.8066 847.209 -93.2012 847.267 -139.598 847.565C-185.994 847.783 -232.391 848.123 -278.787 848.5L-348.381 849.225L-383.179 849.59L-417.975 850.077L-383.179 850.564L-348.381 850.93L-278.787 851.654C-232.391 852.031 -185.994 852.371 -139.598 852.589C-93.2012 852.889 -46.8066 852.945 -0.410187 853.125L138.779 853.293L277.967 853.116C324.363 852.942 370.76 852.876 417.155 852.58C463.551 852.364 509.948 852.022 556.344 851.645L625.938 850.926L660.736 850.56L695.532 850.077L660.736 849.594L625.938 849.228Z" fill="#101136"/>
<g style="mix-blend-mode:multiply">
<path d="M503.481 403.023C497.991 397.503 493.913 390.709 491.683 383.358C490.62 379.816 489.972 376.155 489.754 372.479C489.628 370.534 489.634 368.788 489.775 367.145C489.945 364.898 489.831 364.737 490.324 362.02C491.34 355.726 493.684 349.581 497.108 344.239C500.037 339.655 503.747 335.603 508.13 332.198C511.937 329.146 515.939 327.254 519.695 325.664C556.348 312.23 591.868 343.61 582.843 381.224C581.849 385.518 579.988 389.931 577.312 394.33C572.195 402.92 563.987 409.798 554.198 413.698C549.396 415.647 544.064 416.72 538.353 416.88C536.079 416.995 533.721 416.91 531.346 416.627C528.216 416.255 525.034 415.536 521.894 414.495C521.313 414.3 520.74 414.091 520.17 413.875L495.592 425.42L503.481 403.023ZM537.573 323.375C531.668 323.584 526.359 324.365 520.133 326.756C516.482 328.342 512.583 330.224 508.92 333.2C504.67 336.546 501.084 340.506 498.259 344.973C494.961 350.171 492.71 356.142 491.746 362.241C491.565 362.96 491.258 365.859 491.229 367.236C491.098 368.824 491.098 370.506 491.224 372.389C491.447 375.953 492.084 379.495 493.12 382.92C495.348 390.194 499.425 396.887 504.914 402.276L505.265 402.62L498.324 422.394L520.102 412.155L520.419 412.278C521.072 412.527 521.733 412.768 522.399 412.993C525.441 414.001 528.517 414.695 531.544 415.055C533.829 415.327 536.104 415.408 538.3 415.298C543.834 415.146 548.985 414.114 553.621 412.237C563.098 408.472 571.048 401.83 576.009 393.536C578.612 389.277 580.422 385.014 581.393 380.862C589.016 352.57 566.689 323.733 537.573 323.375Z" fill="url(#paint11_linear_165_58128)"/>
<path d="M516.739 383.659L520.048 347.86L513.551 346.992L513.083 348.117L518.259 348.774L514.917 385.131L545.355 389.056L545.837 387.488L516.739 383.659Z" fill="url(#paint12_linear_165_58128)"/>
<path d="M518.601 353.428L518.502 355.458L562.3 360.456L556.319 374.933C554.977 378.181 551.7 380.073 548.14 379.656L516.657 375.96L516.584 377.455L549.121 381.381C552.685 381.812 555.972 379.925 557.323 376.678L564.742 358.821L518.601 353.428Z" fill="url(#paint13_linear_165_58128)"/>
<path d="M537.303 394.099C536.327 393.983 535.49 393.495 534.948 392.725C534.401 391.95 534.22 390.991 534.438 390.025C534.875 388.105 536.81 386.733 538.756 386.964C539.729 387.08 540.568 387.569 541.109 388.339C541.656 389.112 541.837 390.072 541.619 391.04L541.619 391.041C541.182 392.959 539.245 394.331 537.303 394.099ZM538.575 388.48C537.382 388.338 536.194 389.183 535.925 390.364C535.804 390.901 535.9 391.427 536.195 391.845C536.485 392.257 536.942 392.519 537.483 392.584C538.673 392.725 539.862 391.881 540.13 390.701C540.251 390.162 540.157 389.635 539.862 389.218C539.57 388.806 539.115 388.544 538.575 388.48Z" fill="url(#paint14_linear_165_58128)"/>
<path d="M520.096 392.052C519.123 391.937 518.285 391.448 517.743 390.678C517.196 389.905 517.016 388.944 517.234 387.978C517.669 386.058 519.604 384.686 521.549 384.917C522.525 385.033 523.363 385.522 523.905 386.292C524.452 387.067 524.633 388.027 524.413 388.994C523.978 390.913 522.042 392.284 520.096 392.052ZM521.369 386.433C520.177 386.291 518.99 387.135 518.723 388.315C518.602 388.855 518.693 389.382 518.99 389.798C519.28 390.211 519.737 390.472 520.277 390.537C521.471 390.679 522.658 389.835 522.925 388.655C523.048 388.116 522.952 387.59 522.658 387.171C522.368 386.76 521.91 386.497 521.369 386.433Z" fill="url(#paint15_linear_165_58128)"/>
</g>
</g>
<mask id="mask2_165_58128" style="mask-type:luminance" maskUnits="userSpaceOnUse" x="-893" y="-33" width="1806" height="1017">
<path d="M-892.503 -32.0371H912.331V983.182H-892.503V-32.0371Z" fill="white"/>
</mask>
<g mask="url(#mask2_165_58128)">
<path d="M35.6777 849.759H-211.509V441.752H35.6777V849.759Z" fill="url(#paint16_linear_165_58128)"/>
<path d="M490.077 525.755C495.776 508.004 517.958 462.654 543.805 475.744C570.077 489.049 577.644 541.833 579.577 568.888L575.534 569.497C573.496 542.969 565.775 492.211 541.912 479.567C520.512 468.231 498.522 511.478 493.495 527C484.573 554.555 483.027 585.531 483 586.03C482.945 587.042 482.086 587.87 481.075 587.876C480.067 587.882 479.295 587.068 479.352 586.057C479.465 583.989 481.192 553.433 490.077 525.755Z" fill="white"/>
<path d="M675.922 561.269L684.319 819.039L689.639 848.606H589.62L620.808 554.131L645.585 560.385L675.922 561.269Z" fill="url(#paint17_linear_165_58128)"/>
<path d="M620.807 554.131L610.319 808.405L589.619 848.606H367.181L386.05 798.702L404.848 576.341L620.807 554.131Z" fill="#FCC891"/>
<path d="M647.514 560.153L645.771 840.314L589.62 848.606L610.32 808.405L620.808 554.131L647.514 560.153Z" fill="url(#paint18_linear_165_58128)"/>
<path d="M465.025 588.129C465.071 593.211 462.346 597.453 458.935 597.616C455.527 597.779 452.724 593.803 452.665 588.731C452.607 583.646 455.324 579.384 458.745 579.214C462.162 579.044 464.973 583.04 465.025 588.129Z" fill="url(#paint19_linear_165_58128)"/>
<path d="M462.008 588.277C462.033 590.882 460.638 593.062 458.891 593.146C457.143 593.228 455.701 591.188 455.672 588.586C455.645 585.979 457.039 583.795 458.792 583.71C460.544 583.623 461.984 585.671 462.008 588.277Z" fill="url(#paint20_linear_165_58128)"/>
<path d="M572.161 580.26C572.07 586.612 568.505 591.913 564.201 592.12C559.904 592.327 556.481 587.368 556.554 581.03C556.623 574.674 560.18 569.33 564.497 569.112C568.822 568.893 572.254 573.891 572.161 580.26Z" fill="url(#paint21_linear_165_58128)"/>
<path d="M568.354 580.449C568.308 583.706 566.481 586.43 564.275 586.538C562.069 586.643 560.311 584.098 560.349 580.844C560.388 577.584 562.213 574.852 564.425 574.74C566.639 574.631 568.397 577.187 568.354 580.449Z" fill="url(#paint22_linear_165_58128)"/>
<path d="M467.137 530.642C471.609 512.215 477.488 487.862 494.214 476.03C503.803 469.249 516.32 471.43 528.816 478.487C561.481 496.933 566.212 576.937 566.397 580.331C566.452 581.34 565.681 582.155 564.673 582.151C563.662 582.144 562.804 581.317 562.749 580.304C562.703 579.495 557.964 499.008 527.196 481.663C515.914 475.299 504.46 473.004 496.188 479.342C479.731 491.951 471.714 525.549 471.076 528.63C465.026 557.839 460.651 587.013 460.624 587.513C460.569 588.525 459.711 589.352 458.7 589.358C457.692 589.363 456.92 588.549 456.977 587.538C457.09 585.458 460.099 559.641 467.137 530.642Z" fill="white"/>
<path d="M540.217 554.865C499.222 563.822 544.326 606.387 497.394 601.656C450.461 596.927 455.141 612.529 468.912 641.406C482.685 670.283 451.425 658.511 431.248 672.679C411.071 686.844 461.461 746.684 461.461 746.684C540.94 754.489 540.127 723.224 534.768 699.123C529.41 675.022 555.831 691.514 568.594 677.379C579.404 665.404 566.385 655.51 560.996 638.191C555.607 620.872 581.68 622.185 594.877 608.096C608.076 594.006 581.213 545.91 540.217 554.865Z" fill="url(#paint23_linear_165_58128)"/>
<path d="M537.399 555.687C497.098 564.491 541.439 606.336 495.302 601.685C449.168 597.036 453.767 612.373 467.304 640.761C480.843 669.147 450.114 657.575 430.279 671.503C410.444 685.43 459.979 744.253 459.979 744.253C538.111 751.924 537.31 721.19 532.044 697.498C526.776 673.807 552.749 690.018 565.296 676.122C575.925 664.353 563.123 654.627 557.827 637.6C552.528 620.574 578.924 619.952 591.897 606.101C604.872 592.25 577.7 546.884 537.399 555.687Z" fill="url(#paint24_linear_165_58128)"/>
<path d="M500.732 660.566C492.158 673.469 483.931 686.636 476.05 700.084C468.227 713.591 460.661 727.254 455.019 742.56C455.011 742.582 454.994 742.631 454.986 742.654C454.009 745.459 455.42 748.546 458.136 749.549C460.854 750.551 463.848 749.092 464.824 746.287L464.941 745.949C466.166 742.426 467.267 738.87 468.588 735.34L472.935 724.794L477.756 714.365C479.398 710.899 481.179 707.486 482.886 704.039C489.904 690.343 497.333 676.796 505.137 663.467C512.913 650.123 520.896 636.887 529.088 623.781C537.286 610.678 545.617 597.656 554.173 584.785C544.912 597.129 535.861 609.641 526.934 622.258C518.01 634.876 509.28 647.647 500.732 660.566Z" fill="#53D86A"/>
<path d="M487.032 470.353C453.672 500.637 497.254 530.291 457.099 546.962C416.944 563.633 422.931 580.148 438.32 608.281C453.71 636.415 425.834 637.159 410.696 663.789C395.557 690.421 445.857 738.309 445.857 738.309C513.833 709.832 509.047 672.658 501.371 646.256C493.693 619.854 518.114 627.083 527.01 604.023C534.546 584.49 522.28 578.805 515.467 560.562C508.656 542.321 530.792 531.481 540.061 508.27C549.33 485.058 520.39 440.068 487.032 470.353Z" fill="url(#paint25_linear_165_58128)"/>
<path d="M484.765 472.682C451.971 502.453 494.813 531.606 455.339 547.993C415.865 564.38 421.751 580.616 436.879 608.272C452.009 635.929 424.606 636.66 409.724 662.838C394.842 689.017 444.29 736.094 444.29 736.094C511.112 708.1 506.405 671.557 498.86 645.603C491.315 619.647 515.32 626.756 524.066 604.087C531.473 584.884 519.415 579.296 512.718 561.363C506.023 543.431 528.178 530.111 537.287 507.293C546.399 484.475 517.558 442.911 484.765 472.682Z" fill="url(#paint26_linear_165_58128)"/>
<path d="M466.838 616.173C461.188 635.713 455.877 655.366 450.899 675.148C445.977 694.964 441.31 714.815 438.48 735.499C438.468 735.591 438.455 735.705 438.447 735.798C438.156 739.115 440.526 742.028 443.74 742.304C446.955 742.579 449.8 740.114 450.089 736.797L450.099 736.689C451.836 716.958 455.499 696.944 459.438 677.12C463.432 657.267 467.783 637.446 472.479 617.698C477.152 597.944 482.01 578.224 487.067 558.551C492.127 538.879 497.314 519.236 502.713 499.65C496.383 518.944 490.261 538.315 484.262 557.729C478.266 577.145 472.463 596.626 466.838 616.173Z" fill="#53D86A"/>
<path d="M415.016 848.561H539.142L561.648 713.734H392.51L415.016 848.561Z" fill="url(#paint27_linear_165_58128)"/>
<path d="M215.109 796.351C215.993 789.278 221.186 737.195 220.602 737.195H209.475L86.3633 850.072C92.8851 850.072 225.693 850.03 282.805 850.012C284.257 850.012 284.292 846.911 282.843 846.955C204.429 849.292 213.57 808.656 215.109 796.351Z" fill="white"/>
<path d="M207.73 811.271C208.105 808.649 212.92 753.305 213.095 750.996L75.444 751.472C75.444 751.472 73.6758 794.834 71.9687 803.995C70.2419 813.263 65.038 827.41 46.4454 833.595C24.2563 840.981 -27.4409 847.064 -28.1676 847.571C-30.4029 849.135 -29.0719 850.721 -28.1262 850.771L102 850.146C102 850.146 173.905 843.875 174.182 843.837C191.471 841.336 205.09 829.697 207.73 811.271Z" fill="url(#paint28_linear_165_58128)"/>
<path d="M427.606 402.812H-114.73C-123.717 402.812 -135.323 410.92 -136.004 420.662L-159.824 761.824C-160.503 771.567 -154.698 781.921 -144.697 781.921H400.979C411.289 781.921 417.716 771.567 418.397 761.824L442.647 420.453C443.327 410.711 436.593 402.812 427.606 402.812Z" fill="url(#paint29_linear_165_58128)"/>
<path d="M422.56 402.812H-118.529C-127.437 402.812 -135.203 410.584 -135.872 420.17L-159.534 759.065C-160.202 768.653 -153.524 776.425 -144.616 776.425H396.473C405.383 776.425 413.147 768.653 413.816 759.065L437.479 420.17C438.146 410.584 431.467 402.812 422.56 402.812Z" fill="url(#paint30_linear_165_58128)"/>
<path d="M400.456 764.974H-147.452L-123.143 416.797H424.766L400.456 764.974Z" fill="url(#paint31_linear_165_58128)"/>
<path d="M98.2552 716.865L-103.15 717.188C-112.705 717.203 -120.169 708.942 -119.189 699.437L-99.6448 509.953C-98.7997 501.755 -91.8991 495.52 -83.657 495.506L117.748 495.184C127.304 495.168 134.769 503.429 133.789 512.934L114.243 702.418C113.398 710.616 106.496 716.85 98.2552 716.865Z" fill="url(#paint32_linear_165_58128)"/>
<g style="mix-blend-mode:multiply">
<path d="M82.9299 679.352C82.9299 682.893 45.7748 685.761 -0.0604324 685.761C-45.8957 685.761 -83.0518 682.893 -83.0518 679.352C-83.0518 675.814 -45.8957 672.945 -0.0604324 672.945C45.7748 672.945 82.9299 675.814 82.9299 679.352Z" fill="url(#paint33_radial_165_58128)"/>
</g>
<path d="M21.6919 658.787L23.539 658.804L23.5014 677.377L21.6533 677.36L21.6919 658.787Z" fill="url(#paint34_linear_165_58128)"/>
<path d="M20.9628 667.194H23.9784C24.7436 667.194 25.364 666.574 25.364 665.809V629.764C25.364 628.999 24.7436 628.379 23.9793 628.379H20.9647C20.1995 628.379 19.5791 628.999 19.5791 629.764V665.809C19.5791 666.574 20.1986 667.194 20.9628 667.194Z" fill="url(#paint35_linear_165_58128)"/>
<path d="M21.7657 664.513L21.0992 662.484L-13.7773 673.966L-13.109 675.992L21.7657 664.513Z" fill="url(#paint36_linear_165_58128)"/>
<path d="M-46.2744 617.623C-46.187 617.726 -46.0949 617.824 -45.9924 617.926C-35.2922 629.384 -20.0432 636.544 -3.12667 636.544C49.0067 636.544 55.5473 610.279 55.5473 577.877C55.5473 561.209 48.5968 546.172 37.4407 535.486C36.9848 535.051 36.5242 534.622 36.0523 534.201C28.7014 529.828 6.10994 543.159 -15.8338 565.103C-38.4535 587.722 -51.9239 611.026 -46.2744 617.623Z" fill="url(#paint37_radial_165_58128)"/>
<path d="M-46.8411 617.623C-46.7697 617.714 -46.6926 617.798 -46.6108 617.88C-46.5958 617.895 -46.5807 617.911 -46.5591 617.926C-40.26 624.036 -16.6938 610.521 6.16178 587.665C28.4026 565.425 41.8007 542.514 36.8722 535.486C36.718 535.271 36.5563 535.076 36.3711 534.892C36.1042 534.625 35.8128 534.395 35.4856 534.201C28.1347 529.828 5.54137 543.159 -16.4015 565.103C-39.0211 587.722 -52.4925 611.026 -46.8411 617.623Z" fill="url(#paint38_linear_165_58128)"/>
<path d="M-42.1948 616.88C-34.451 616.88 -15.9637 606.235 4.38491 585.887C28.8959 561.375 37.937 541.38 34.8161 536.929C34.7541 536.843 34.6779 536.753 34.5942 536.671C34.4692 536.546 34.3423 536.444 34.2013 536.361C33.6712 536.045 32.9154 535.885 31.9566 535.885C24.2108 535.885 5.72161 546.531 -14.6251 566.878C-25.4042 577.659 -34.4341 588.935 -40.0488 598.63C-45.9286 608.785 -46.3544 614.328 -44.9331 615.989L-44.8748 616.059L-44.8109 616.122C-44.2911 616.625 -43.4112 616.88 -42.1948 616.88Z" fill="url(#paint39_radial_165_58128)"/>
<path d="M23.9272 664.513L24.5947 662.484L59.4712 673.966L58.8038 675.992L23.9272 664.513Z" fill="url(#paint40_linear_165_58128)"/>
<path d="M62.7277 675.302C62.7277 677.343 61.0723 678.999 59.0306 678.999C56.9889 678.999 55.3335 677.343 55.3335 675.302C55.3335 673.26 56.9889 671.605 59.0306 671.605C61.0723 671.605 62.7277 673.26 62.7277 675.302Z" fill="url(#paint41_linear_165_58128)"/>
<path d="M26.2926 675.302C26.2926 677.343 24.6372 678.999 22.5955 678.999C20.5538 678.999 18.8984 677.343 18.8984 675.302C18.8984 673.26 20.5538 671.605 22.5955 671.605C24.6372 671.605 26.2926 673.26 26.2926 675.302Z" fill="url(#paint42_linear_165_58128)"/>
<path d="M235.373 582.466H161.42L162.009 577.65H235.962L235.373 582.466Z" fill="url(#paint43_linear_165_58128)"/>
<path d="M318.951 567.98H162.58L163.167 563.164H319.538L318.951 567.98Z" fill="white"/>
<path d="M288.675 553.49H163.209L163.796 548.674H289.262L288.675 553.49Z" fill="white"/>
<path d="M265.424 582.466H242.983L243.569 577.65H266.013L265.424 582.466Z" fill="url(#paint44_linear_165_58128)"/>
<path d="M363.215 488.553H400.464L400.168 490.978H362.917L363.215 488.553Z" fill="url(#paint45_linear_165_58128)"/>
<path d="M321.12 495.85H399.878L399.582 498.275H320.824L321.12 495.85Z" fill="white"/>
<path d="M336.368 503.146H399.561L399.265 505.573H336.072L336.368 503.146Z" fill="white"/>
<path d="M348.079 488.553H359.383L359.087 490.978H347.783L348.079 488.553Z" fill="url(#paint46_linear_165_58128)"/>
<path d="M161.827 605.188L163.771 610.682L169.71 611.562L164.726 615.837L164.918 621.874L159.895 619.024L154.075 621.874L155.954 615.837L152.165 611.562L158.348 610.682L161.827 605.188Z" fill="url(#paint47_linear_165_58128)"/>
<path d="M184.208 605.188L186.151 610.682L192.089 611.562L187.108 615.837L187.3 621.874L182.277 619.024L176.457 621.874L178.335 615.837L174.547 611.562L180.73 610.682L184.208 605.188Z" fill="url(#paint48_linear_165_58128)"/>
<path d="M206.59 605.188L208.533 610.682L214.471 611.562L209.488 615.837L209.681 621.874L204.658 619.024L198.838 621.874L200.716 615.837L196.927 611.562L203.113 610.682L206.59 605.188Z" fill="url(#paint49_linear_165_58128)"/>
<path d="M228.971 605.188L230.915 610.682L236.853 611.562L231.87 615.837L232.061 621.874L227.038 619.024L221.218 621.874L223.097 615.837L219.308 611.562L225.493 610.682L228.971 605.188Z" fill="url(#paint50_linear_165_58128)"/>
<path d="M251.351 605.188L253.295 610.682L259.234 611.562L254.25 615.837L254.443 621.874L249.419 619.024L243.599 621.874L245.478 615.837L241.69 611.562L247.873 610.682L251.351 605.188Z" fill="white"/>
<path d="M150.451 663.05L153.149 643.391H160.284C161.529 643.391 162.619 643.619 163.553 644.077C164.486 644.517 165.213 645.176 165.732 646.056C166.268 646.935 166.536 648.026 166.536 649.328C166.536 650.26 166.372 651.122 166.043 651.914C165.732 652.706 165.273 653.392 164.668 653.972C164.08 654.553 163.362 655.01 162.515 655.344L165.758 663.05H161.477L157.871 654.289L160.284 655.925H155.458L154.472 663.05H150.451ZM155.951 652.363H159.402C160.007 652.363 160.534 652.231 160.984 651.967C161.451 651.703 161.814 651.342 162.074 650.885C162.35 650.427 162.489 649.909 162.489 649.328C162.489 648.607 162.255 648.035 161.788 647.613C161.339 647.173 160.725 646.953 159.946 646.953H156.678L155.951 652.363Z" fill="white"/>
<path d="M169.903 649.203L170.188 647.381C171.93 647.214 173.17 646.935 173.911 646.543C174.648 646.151 175.299 645.224 175.864 643.764H177.738L174.782 662.588H172.246L174.35 649.203H169.903Z" fill="white"/>
<path d="M195.36 646.708C195.96 648.264 196.047 650.398 195.621 653.109C195.219 655.679 194.502 657.805 193.471 659.486C191.984 661.896 189.983 663.102 187.466 663.102C185.196 663.102 183.66 662.115 182.861 660.144C182.197 658.497 182.08 656.289 182.516 653.518C182.854 651.37 183.42 649.527 184.216 647.988C185.705 645.117 187.81 643.686 190.528 643.686C192.976 643.686 194.586 644.691 195.36 646.708ZM190.993 659.299C191.895 658.209 192.579 656.176 193.046 653.202C193.384 651.054 193.397 649.289 193.088 647.902C192.777 646.516 191.859 645.822 190.337 645.822C188.94 645.822 187.812 646.481 186.959 647.796C186.105 649.111 185.479 651.051 185.076 653.61C184.773 655.538 184.736 657.087 184.966 658.257C185.318 660.044 186.262 660.937 187.791 660.937C189.024 660.937 190.091 660.392 190.993 659.299Z" fill="white"/>
<path d="M210.395 646.708C210.995 648.264 211.083 650.398 210.657 653.109C210.253 655.679 209.536 657.805 208.506 659.486C207.018 661.896 205.015 663.102 202.5 663.102C200.23 663.102 198.694 662.115 197.895 660.144C197.231 658.497 197.115 656.289 197.551 653.518C197.887 651.37 198.454 649.527 199.25 647.988C200.739 645.117 202.845 643.686 205.563 643.686C208.009 643.686 209.619 644.691 210.395 646.708ZM206.027 659.299C206.928 658.209 207.615 656.176 208.082 653.202C208.42 651.054 208.432 649.289 208.121 647.902C207.812 646.516 206.895 645.822 205.372 645.822C203.972 645.822 202.848 646.481 201.995 647.796C201.14 649.111 200.513 651.051 200.11 653.61C199.807 655.538 199.77 657.087 200 658.257C200.354 660.044 201.296 660.937 202.827 660.937C204.058 660.937 205.125 660.392 206.027 659.299Z" fill="white"/>
<path d="M280.253 611.89L280.482 610.571C281.746 610.451 282.649 610.25 283.188 609.966C283.728 609.682 284.21 609.011 284.639 607.953H285.996L283.616 621.582H281.781L283.474 611.89H280.253Z" fill="white"/>
<path d="M298.718 610.084C299.134 611.211 299.169 612.757 298.826 614.72C298.501 616.578 297.955 618.119 297.189 619.335C296.083 621.081 294.616 621.953 292.794 621.953C291.149 621.953 290.052 621.24 289.498 619.813C289.037 618.622 288.982 617.021 289.331 615.016C289.602 613.461 290.037 612.126 290.634 611.01C291.748 608.933 293.289 607.895 295.257 607.895C297.03 607.895 298.183 608.624 298.718 610.084ZM295.398 619.2C296.064 618.411 296.585 616.939 296.961 614.786C297.233 613.231 297.264 611.952 297.057 610.95C296.851 609.946 296.196 609.444 295.093 609.444C294.081 609.444 293.255 609.919 292.62 610.873C291.986 611.824 291.509 613.229 291.185 615.082C290.942 616.478 290.894 617.599 291.046 618.446C291.278 619.74 291.95 620.385 293.059 620.385C293.952 620.385 294.731 619.993 295.398 619.2Z" fill="white"/>
<path d="M309.605 610.084C310.019 611.211 310.055 612.757 309.713 614.72C309.39 616.578 308.842 618.119 308.076 619.335C306.967 621.081 305.501 621.953 303.679 621.953C302.036 621.953 300.937 621.24 300.383 619.813C299.922 618.622 299.867 617.021 300.218 615.016C300.489 613.461 300.922 612.126 301.519 611.01C302.633 608.933 304.176 607.895 306.144 607.895C307.915 607.895 309.069 608.624 309.605 610.084ZM306.283 619.2C306.949 618.411 307.471 616.939 307.846 614.786C308.117 613.231 308.151 611.952 307.944 610.95C307.735 609.946 307.081 609.444 305.979 609.444C304.965 609.444 304.142 609.919 303.507 610.873C302.873 611.824 302.393 613.229 302.07 615.082C301.827 616.478 301.78 617.599 301.932 618.446C302.164 619.74 302.836 620.385 303.944 620.385C304.835 620.385 305.616 619.993 306.283 619.2Z" fill="white"/>
<path d="M318.958 607.541H325.456C326.526 607.541 327.38 607.698 328.021 608.009C329.235 608.607 329.702 609.714 329.422 611.326C329.274 612.166 328.979 612.856 328.54 613.39C328.1 613.926 327.537 614.356 326.857 614.681C327.365 614.904 327.727 615.197 327.942 615.559C328.154 615.923 328.206 616.513 328.096 617.327L327.834 619.211C327.761 619.747 327.736 620.144 327.759 620.405C327.796 620.852 327.949 621.139 328.222 621.265L328.167 621.582H325.834C325.79 621.461 325.768 621.304 325.763 621.112C325.757 620.922 325.791 620.552 325.86 620.003L326.155 617.663C326.27 616.745 326.036 616.13 325.454 615.819C325.122 615.645 324.564 615.559 323.789 615.559H319.459L318.407 621.582H316.506L318.958 607.541ZM324.131 613.974C325.024 613.974 325.761 613.796 326.343 613.44C326.925 613.081 327.297 612.438 327.459 611.507C327.633 610.508 327.389 609.825 326.725 609.461C326.37 609.272 325.867 609.175 325.217 609.175H320.573L319.735 613.974H324.131Z" fill="white"/>
<path d="M338.295 611.629C338.917 611.97 339.36 612.411 339.621 612.952C339.875 613.468 340 614.07 339.994 614.758C340.014 615.23 339.934 615.981 339.755 617.013H332.252C332.102 618.052 332.201 618.886 332.55 619.512C332.9 620.141 333.554 620.454 334.519 620.454C335.417 620.454 336.185 620.158 336.824 619.567C337.189 619.223 337.475 618.824 337.682 618.37H339.374C339.262 618.747 339.04 619.167 338.709 619.627C338.377 620.09 338.029 620.468 337.665 620.76C337.054 621.27 336.348 621.614 335.547 621.794C335.114 621.894 334.636 621.945 334.114 621.945C332.84 621.945 331.841 621.483 331.118 620.555C330.393 619.627 330.176 618.331 330.468 616.66C330.756 615.017 331.434 613.682 332.504 612.656C333.577 611.629 334.831 611.117 336.271 611.117C336.997 611.117 337.672 611.287 338.295 611.629ZM338.225 615.647C338.283 614.903 338.225 614.306 338.047 613.859C337.722 613.032 337.007 612.617 335.905 612.617C335.115 612.617 334.403 612.903 333.769 613.474C333.134 614.044 332.722 614.767 332.537 615.647H338.225Z" fill="white"/>
<path d="M343.697 611.348L344.976 619.681L349.287 611.348H351.17L345.523 621.584H343.688L341.699 611.348H343.697Z" fill="white"/>
<path d="M353.308 607.541H355.057L354.717 609.49H352.967L353.308 607.541ZM352.634 611.392H354.384L352.605 621.582H350.856L352.634 611.392Z" fill="white"/>
<path d="M363.318 611.629C363.94 611.97 364.381 612.411 364.644 612.952C364.898 613.468 365.023 614.07 365.017 614.758C365.036 615.23 364.957 615.981 364.776 617.013H357.272C357.122 618.052 357.224 618.886 357.573 619.512C357.923 620.141 358.577 620.454 359.54 620.454C360.438 620.454 361.206 620.158 361.845 619.567C362.21 619.223 362.496 618.824 362.703 618.37H364.395C364.285 618.747 364.063 619.167 363.73 619.627C363.399 620.09 363.05 620.468 362.688 620.76C362.077 621.27 361.368 621.614 360.567 621.794C360.136 621.894 359.659 621.945 359.136 621.945C357.862 621.945 356.864 621.483 356.139 620.555C355.414 619.627 355.198 618.331 355.489 616.66C355.777 615.017 356.455 613.682 357.527 612.656C358.599 611.629 359.854 611.117 361.294 611.117C362.02 611.117 362.695 611.287 363.318 611.629ZM363.246 615.647C363.306 614.903 363.248 614.306 363.07 613.859C362.742 613.032 362.03 612.617 360.926 612.617C360.136 612.617 359.424 612.903 358.79 613.474C358.155 614.044 357.744 614.767 357.558 615.647H363.246Z" fill="white"/>
<path d="M368.67 611.348L369.231 619.414L372.636 611.348H374.569L375.176 619.366L378.668 611.348H380.388L375.629 621.584H373.842L373.142 613.658L369.743 621.584H367.953L366.788 611.348H368.67Z" fill="white"/>
<path d="M381.81 618.368C381.76 618.942 381.828 619.382 382.009 619.688C382.346 620.242 383.05 620.52 384.12 620.52C384.757 620.52 385.342 620.38 385.875 620.102C386.407 619.826 386.723 619.398 386.826 618.818C386.903 618.379 386.768 618.045 386.418 617.814C386.195 617.675 385.732 617.512 385.031 617.325L383.725 616.981C382.889 616.765 382.288 616.525 381.919 616.256C381.262 615.791 381.004 615.146 381.149 614.327C381.317 613.357 381.804 612.575 382.605 611.974C383.408 611.376 384.399 611.076 385.577 611.076C387.119 611.076 388.152 611.528 388.678 612.434C389.003 613.006 389.102 613.626 388.974 614.289H387.349C387.384 613.899 387.309 613.547 387.124 613.228C386.807 612.774 386.161 612.547 385.186 612.547C384.537 612.547 384.024 612.673 383.645 612.92C383.268 613.17 383.042 613.497 382.971 613.907C382.894 614.351 383.05 614.709 383.444 614.976C383.67 615.135 384.021 615.275 384.498 615.397L385.587 615.674C386.77 615.974 387.549 616.262 387.92 616.544C388.513 616.981 388.727 617.675 388.562 618.617C388.403 619.528 387.919 620.316 387.113 620.979C386.306 621.641 385.196 621.973 383.78 621.973C382.258 621.973 381.239 621.627 380.727 620.935C380.213 620.243 380.022 619.387 380.155 618.368H381.81Z" fill="white"/>
<path d="M366.542 461.215L367.6 436.955L363.178 436.891L362.899 437.682L366.419 437.709L365.358 462.345L386.06 462.549L386.334 461.461L366.542 461.215Z" fill="white"/>
<path d="M366.803 440.804V442.172L396.569 442.029L393.004 452.21C392.204 454.494 390.051 456.023 387.63 456.027L366.232 456.062V457.069L388.351 457.106C390.774 457.111 392.935 455.584 393.74 453.299L398.165 440.738L366.803 440.804Z" fill="white"/>
<path d="M409.046 439.747C408.014 445.66 402.384 450.454 396.469 450.454C390.554 450.454 386.597 445.66 387.629 439.747C388.663 433.832 394.294 429.037 400.208 429.037C406.123 429.037 410.08 433.832 409.046 439.747Z" fill="url(#paint51_linear_165_58128)"/>
<path d="M380.818 466.57C380.153 466.57 379.564 466.308 379.164 465.831C378.756 465.346 378.597 464.707 378.714 464.032C378.947 462.709 380.167 461.672 381.495 461.672C382.161 461.672 382.748 461.935 383.149 462.412C383.556 462.897 383.716 463.536 383.599 464.21C383.369 465.533 382.146 466.57 380.818 466.57ZM381.495 462.702C380.681 462.702 379.873 463.393 379.728 464.21C379.664 464.58 379.744 464.919 379.952 465.168C380.156 465.408 380.462 465.541 380.818 465.541C381.634 465.541 382.441 464.85 382.584 464.032C382.648 463.664 382.569 463.323 382.36 463.074C382.159 462.834 381.85 462.702 381.495 462.702Z" fill="white"/>
<path d="M369.123 466.57C368.457 466.57 367.867 466.308 367.466 465.831C367.06 465.345 366.9 464.706 367.019 464.032C367.249 462.71 368.469 461.672 369.798 461.672C370.463 461.672 371.053 461.934 371.453 462.413C371.859 462.898 372.021 463.537 371.901 464.21C371.671 465.533 370.451 466.57 369.123 466.57ZM369.798 462.702C368.984 462.702 368.177 463.393 368.032 464.21C367.968 464.58 368.048 464.919 368.255 465.167C368.458 465.408 368.766 465.541 369.123 465.541C369.937 465.541 370.745 464.85 370.888 464.032C370.952 463.664 370.872 463.323 370.665 463.075C370.464 462.836 370.154 462.702 369.798 462.702Z" fill="white"/>
<path d="M394.27 435.525L393.7 436.641L403.226 436.729L403.5 435.64L394.27 435.525Z" fill="white"/>
<path d="M393.526 439.598L392.955 440.713L402.481 440.801L402.754 439.712L393.526 439.598Z" fill="white"/>
<path d="M392.782 443.67L392.211 444.786L401.734 444.873L402.009 443.786L392.782 443.67Z" fill="white"/>
<path d="M346.434 662.876C346.366 662.876 346.295 662.869 346.229 662.852C346.181 662.841 346.136 662.825 346.094 662.806C345.984 662.76 345.89 662.691 345.811 662.596L340.219 655.799C338.399 653.586 338.095 650.472 339.427 647.675C340.585 645.249 342.522 643.947 345.032 643.908C346.69 643.929 347.828 644.355 348.613 645.312C348.802 645.54 348.955 645.785 349.079 646.039C349.291 645.776 349.535 645.518 349.811 645.281C350.892 644.347 352.25 643.908 353.798 643.908C356.294 643.947 357.823 645.249 358.218 647.675C358.67 650.472 357.387 653.584 354.87 655.799L347.145 662.596C346.939 662.777 346.683 662.876 346.434 662.876Z" fill="url(#paint52_linear_165_58128)"/>
<path d="M293.645 425.022L296.064 401.916C299.648 367.697 272.814 337.906 238.409 337.906H88.4679C58.7887 337.906 33.9046 360.322 30.8128 389.84L27.1289 425.022H293.645Z" fill="white"/>
<path d="M97.874 400.154C95.6659 400.154 93.7502 399.941 92.1296 399.515C90.509 399.088 89.021 398.558 87.6636 397.925L88.5011 391.066H89.162C90.4573 392.294 91.9369 393.236 93.6017 393.894C95.2646 394.554 96.9162 394.883 98.5556 394.883C98.9692 394.883 99.5219 394.837 100.212 394.747C100.9 394.658 101.463 394.514 101.9 394.32C102.43 394.101 102.894 393.796 103.292 393.401C103.687 393.007 103.925 392.488 104.006 391.841C104.093 391.118 103.882 390.53 103.369 390.077C102.855 389.625 102.216 389.297 101.454 389.09C100.504 388.832 99.4852 388.585 98.3967 388.354C97.3063 388.121 96.2986 387.837 95.3708 387.5C93.2322 386.713 91.7592 385.654 90.9546 384.323C90.148 382.993 89.8679 381.326 90.1114 379.324C90.4423 376.624 91.8523 374.439 94.3424 372.766C96.8344 371.093 99.7917 370.256 103.214 370.256C104.932 370.256 106.619 370.431 108.276 370.779C109.932 371.128 111.395 371.599 112.665 372.193L111.86 378.782H111.221C110.261 377.864 109.048 377.089 107.581 376.456C106.115 375.825 104.568 375.507 102.942 375.507C102.307 375.507 101.734 375.553 101.218 375.642C100.703 375.733 100.154 375.908 99.5661 376.166C99.0885 376.373 98.6599 376.68 98.2811 377.086C97.9022 377.493 97.6813 377.948 97.6193 378.452C97.53 379.188 97.7199 379.774 98.1899 380.206C98.6599 380.638 99.6244 381.028 101.079 381.377C102.02 381.597 102.929 381.811 103.801 382.017C104.673 382.225 105.598 382.508 106.575 382.87C108.489 383.594 109.858 384.566 110.684 385.786C111.511 387.007 111.801 388.619 111.556 390.621C111.206 393.488 109.795 395.793 107.33 397.537C104.862 399.282 101.71 400.154 97.874 400.154Z" fill="url(#paint53_linear_165_58128)"/>
<path d="M150.137 399.631H142.891L144.453 386.844H134.59L133.028 399.631H125.782L129.307 370.781H136.554L135.264 381.341H145.126L146.418 370.781H153.662L150.137 399.631Z" fill="url(#paint54_linear_165_58128)"/>
<path d="M195.767 385.214C195.196 389.878 193.502 393.548 190.681 396.221C187.861 398.895 184.281 400.232 179.942 400.232C175.588 400.232 172.337 398.879 170.187 396.173C168.037 393.467 167.244 389.814 167.807 385.214C168.372 380.577 170.061 376.913 172.871 374.22C175.679 371.526 179.261 370.18 183.614 370.18C187.955 370.18 191.208 371.519 193.374 374.199C195.538 376.88 196.336 380.552 195.767 385.214ZM188.29 385.196C188.501 383.478 188.501 382.015 188.294 380.808C188.085 379.6 187.732 378.608 187.233 377.833C186.709 377.046 186.076 376.481 185.338 376.138C184.599 375.796 183.807 375.624 182.968 375.624C182.077 375.624 181.25 375.783 180.489 376.099C179.726 376.417 178.96 376.981 178.19 377.795C177.503 378.544 176.9 379.538 176.38 380.778C175.86 382.017 175.496 383.497 175.286 385.214C175.068 386.985 175.065 388.455 175.27 389.624C175.477 390.793 175.835 391.771 176.345 392.559C176.867 393.36 177.502 393.931 178.248 394.274C178.992 394.616 179.787 394.787 180.626 394.787C181.479 394.787 182.328 394.603 183.173 394.236C184.02 393.866 184.781 393.296 185.456 392.52C186.179 391.682 186.777 390.702 187.249 389.584C187.72 388.468 188.069 387.005 188.29 385.196Z" fill="url(#paint55_linear_165_58128)"/>
<path d="M234.529 379.887C234.367 381.231 233.997 382.51 233.423 383.724C232.849 384.938 232.109 385.953 231.209 386.766C230.656 387.27 230.06 387.735 229.422 388.161C228.782 388.587 228.088 388.95 227.342 389.246C226.596 389.544 225.795 389.776 224.94 389.944C224.088 390.112 223.144 390.195 222.11 390.195H218.313L217.159 399.631H209.913L213.44 370.781H224.638C226.304 370.781 227.722 370.934 228.893 371.236C230.064 371.54 231.1 372.021 232.002 372.68C232.999 373.404 233.719 374.369 234.167 375.576C234.614 376.784 234.734 378.221 234.529 379.887ZM227.069 380.062C227.168 379.248 227.06 378.548 226.745 377.96C226.428 377.372 226.014 376.969 225.498 376.749C224.848 376.452 224.215 376.281 223.593 376.235C222.973 376.19 222.126 376.168 221.054 376.168H220.028L218.97 384.809H219.475C220.159 384.809 220.805 384.803 221.414 384.79C222.023 384.777 222.558 384.732 223.021 384.655C223.415 384.59 223.84 384.463 224.297 384.276C224.753 384.089 225.112 383.879 225.372 383.647C225.921 383.169 226.314 382.672 226.551 382.155C226.789 381.638 226.961 380.94 227.069 380.062Z" fill="url(#paint56_linear_165_58128)"/>
<path d="M287.149 417.811H35.1338L37.9839 390.59C40.6987 364.666 62.4037 345.117 88.4694 345.117H238.409C252.769 345.117 266.515 351.236 276.125 361.905C285.735 372.573 290.389 386.883 288.892 401.165L287.149 417.811ZM37.4227 415.749H285.292L286.845 400.95C288.278 387.249 283.814 373.52 274.594 363.284C265.373 353.048 252.185 347.177 238.409 347.177H88.4694C63.4612 347.177 42.6379 365.933 40.035 390.805L37.4227 415.749Z" fill="#44456D"/>
<path d="M259.546 377.939L261.653 384.199L268.401 385.202L262.636 390.075L262.735 396.954L257.067 393.706L250.379 396.954L252.641 390.075L248.407 385.202L255.472 384.199L259.546 377.939Z" fill="url(#paint57_radial_165_58128)"/>
<path d="M66.3023 377.939L68.4089 384.199L75.1573 385.202L69.3931 390.075L69.4918 396.954L63.8235 393.706L57.1352 396.954L59.3969 390.075L55.1631 385.202L62.2283 384.199L66.3023 377.939Z" fill="url(#paint58_radial_165_58128)"/>
<path d="M27.4729 425.021L-4.38525 470.639H48.815L80.6732 425.021H27.4729Z" fill="url(#paint59_linear_165_58128)"/>
<path d="M80.6736 425.021L48.8154 470.639H102.018L133.875 425.021H80.6736Z" fill="#ACDBB4"/>
<path d="M133.874 425.021L102.017 470.639H155.217L187.076 425.021H133.874Z" fill="url(#paint60_linear_165_58128)"/>
<path d="M187.077 425.021L155.218 470.639H208.419L240.277 425.021H187.077Z" fill="#ACDBB4"/>
<path d="M240.277 425.021L208.419 470.639H261.621L293.479 425.021H240.277Z" fill="url(#paint61_linear_165_58128)"/>
<path d="M48.815 470.639H-4.38525V494.122C-4.38525 508.814 7.52383 520.723 22.2144 520.723C36.905 520.723 48.815 508.814 48.815 494.122V470.639Z" fill="url(#paint62_linear_165_58128)"/>
<path d="M102.018 470.639H48.8154V507.986C48.8154 515.021 54.5176 520.723 61.5527 520.723H89.2794C96.3145 520.723 102.018 515.02 102.018 507.985V470.639Z" fill="white"/>
<path d="M155.217 470.639H102.017V507.986C102.017 515.021 107.719 520.723 114.754 520.723H142.48C149.514 520.723 155.217 515.02 155.217 507.986V470.639Z" fill="url(#paint63_linear_165_58128)"/>
<path d="M208.419 470.639H155.218V507.985C155.218 515.02 160.92 520.723 167.955 520.723H195.683C202.717 520.723 208.419 515.02 208.419 507.986V470.639Z" fill="white"/>
<path d="M261.621 470.639H208.419V507.985C208.419 515.02 214.122 520.723 221.157 520.723H248.884C255.919 520.723 261.621 515.02 261.621 507.985V470.639Z" fill="url(#paint64_linear_165_58128)"/>
<path d="M350.882 729.189H151.477C148.787 729.189 146.873 727.009 147.201 724.319L151.857 686.21C152.185 683.52 154.632 681.342 157.322 681.342H356.727C359.417 681.342 361.331 683.52 361.002 686.21L356.347 724.319C356.018 727.009 353.572 729.189 350.882 729.189Z" fill="url(#paint65_linear_165_58128)"/>
<path d="M342.658 723.057H315.396C313.428 723.057 312.028 721.463 312.269 719.495L315.6 692.233C315.84 690.267 317.63 688.672 319.596 688.672H346.859C348.825 688.672 350.225 690.267 349.984 692.233L346.655 719.495C346.414 721.463 344.624 723.057 342.658 723.057Z" fill="url(#paint66_radial_165_58128)"/>
<path d="M329.908 715.839C329.42 715.839 329.075 715.445 329.134 714.957L331.356 696.77C331.415 696.284 331.857 695.891 332.344 695.891C332.832 695.891 333.177 696.284 333.117 696.77L330.897 714.957C330.836 715.445 330.394 715.839 329.908 715.839Z" fill="white"/>
<path d="M339.951 706.745H322.086C321.598 706.745 321.253 706.351 321.312 705.865C321.371 705.379 321.814 704.984 322.3 704.984H340.166C340.654 704.984 340.999 705.379 340.94 705.865C340.881 706.351 340.437 706.745 339.951 706.745Z" fill="white"/>
<path d="M221.389 697.611H227.794C229.539 697.611 230.717 698.133 231.327 699.177C231.685 699.791 231.814 700.502 231.716 701.307C231.602 702.249 231.24 703.02 230.631 703.621C230.314 703.94 229.88 704.231 229.327 704.494C230.056 704.785 230.588 705.113 230.921 705.48C231.512 706.13 231.739 707.025 231.599 708.169C231.481 709.129 231.072 709.999 230.375 710.777C229.334 711.941 227.831 712.524 225.869 712.524H219.565L221.389 697.611ZM226.272 703.916C227.125 703.916 227.801 703.797 228.304 703.562C229.094 703.188 229.549 702.519 229.668 701.55C229.786 700.575 229.471 699.921 228.719 699.582C228.295 699.392 227.643 699.297 226.765 699.297H223.162L222.597 703.916H226.272ZM226.11 710.798C227.349 710.798 228.277 710.439 228.892 709.723C229.279 709.269 229.511 708.719 229.589 708.078C229.721 706.995 229.328 706.257 228.409 705.865C227.919 705.655 227.254 705.55 226.406 705.55H222.398L221.756 710.798H226.11Z" fill="white"/>
<path d="M237.497 697.611L236.371 706.829C236.238 707.911 236.33 708.813 236.649 709.529C237.119 710.611 238.066 711.153 239.496 711.153C241.208 711.153 242.442 710.568 243.203 709.397C243.61 708.762 243.881 707.906 244.013 706.829L245.139 697.611H247.19L246.167 705.987C245.944 707.82 245.523 709.231 244.909 710.219C243.781 712.018 241.959 712.918 239.442 712.918C236.925 712.918 235.326 712.018 234.646 710.219C234.274 709.231 234.199 707.82 234.423 705.987L235.447 697.611H237.497Z" fill="white"/>
<path d="M249.159 697.611H251.515L254.921 704.778L260.081 697.611H262.447L255.725 706.515L254.99 712.524H252.971L253.704 706.515L249.159 697.611Z" fill="white"/>
<path d="M-389.583 844.157L-390.467 842.296C-389.673 841.917 -309.994 803.71 -219.315 733.033C-135.665 667.833 -25.2811 560.881 25.556 421.615L27.4915 422.321C4.96402 484.036 -30.987 544.619 -79.3631 602.388C-118.049 648.585 -164.721 693.097 -218.087 734.686C-308.939 805.493 -388.786 843.778 -389.583 844.157Z" fill="url(#paint67_linear_165_58128)"/>
<path d="M9.35169 463.316L34.3261 505.939L-14.521 508.903C-14.521 508.903 4.41095 476.387 9.35169 463.316Z" fill="#FCC891"/>
<path d="M692.461 849.993C691.697 849.609 615.123 810.788 527.997 738.997C476.823 696.828 432.065 651.698 394.967 604.861C348.58 546.292 314.106 484.871 292.504 422.303L294.452 421.631C343.208 562.851 449.078 671.299 529.307 737.407C616.256 809.053 692.624 847.768 693.386 848.151L692.461 849.993Z" fill="url(#paint68_linear_165_58128)"/>
<path d="M309.946 463.889L285.997 507.102L332.836 510.109C332.836 510.109 314.685 477.139 309.946 463.889Z" fill="#FCC891"/>
<path d="M481.654 697.018L475.755 746.07L520.276 731.204C520.276 731.204 491.037 707.505 481.654 697.018Z" fill="#FCC891"/>
<path d="M353.921 545.412L334.935 591.276L383.04 587.985C383.04 587.985 360.463 557.872 353.921 545.412Z" fill="url(#paint69_linear_165_58128)"/>
<path d="M564.895 767.055L563.272 816.663L607.139 796.647C607.139 796.647 575.405 776.413 564.895 767.055Z" fill="url(#paint70_linear_165_58128)"/>
<path d="M409.613 621.566L397.223 669.633L444.396 659.65C444.396 659.65 417.831 632.989 409.613 621.566Z" fill="white"/>
<path d="M652.099 825.932L655.885 875.425L697.312 850.752C697.312 850.752 663.565 834.091 652.099 825.932Z" fill="white"/>
<path d="M486.341 736.258L467.632 741.134L489.023 752.039L486.341 736.258Z" fill="url(#paint71_linear_165_58128)"/>
<path d="M286.017 741.327L266.958 736.52L262.829 756.886L286.017 741.327Z" fill="url(#paint72_linear_165_58128)"/>
<path d="M492.278 743.645L467.632 741.134L486.342 736.258L266.957 736.52L286.087 741.322L259.729 743.973L492.278 743.645Z" fill="url(#paint73_linear_165_58128)"/>
<path d="M505.379 851.758L492.279 743.645L259.729 743.973L237.468 851.758H505.379Z" fill="url(#paint74_linear_165_58128)"/>
<path d="M505.379 851.758L502.136 821.863L243.296 820.463L237.468 851.758H505.379Z" fill="url(#paint75_linear_165_58128)"/>
<path d="M379.923 713.26C377.763 713.26 351.388 713.492 350.261 746.305C350.242 746.821 350.859 747.249 351.635 747.26C351.7 747.26 351.765 747.258 351.827 747.255C352.515 747.204 353.058 746.82 353.073 746.348C354.113 716.1 377.901 715.108 379.541 715.108C381.224 715.108 404.601 717.04 401.078 747.964C401.019 748.478 401.599 748.927 402.375 748.965C402.464 748.969 402.552 748.969 402.64 748.962C403.297 748.914 403.831 748.559 403.884 748.105C407.537 716.042 382.05 713.26 379.923 713.26Z" fill="white"/>
<path d="M362.763 809.534C360.917 808.907 359.145 808.08 357.467 807.057L348.438 798.03C347.417 796.351 346.589 794.58 345.963 792.732L362.763 809.534Z" fill="white"/>
<path d="M371.406 810.956C370.804 810.956 370.196 810.935 369.596 810.894L344.601 785.899C344.53 784.842 344.522 783.776 344.575 782.707L372.788 810.921C372.328 810.944 371.864 810.956 371.406 810.956Z" fill="white"/>
<path d="M347.593 771.616C347.962 770.91 348.365 770.214 348.799 769.539L385.959 806.699C385.282 807.132 384.586 807.536 383.882 807.903L347.593 771.616Z" fill="white"/>
<path d="M351.464 766.042C351.771 765.704 352.087 765.37 352.41 765.047C352.736 764.72 353.083 764.395 353.458 764.061L391.433 802.038C391.101 802.413 390.773 802.759 390.447 803.086C390.125 803.407 389.792 803.723 389.452 804.03L351.464 766.042Z" fill="white"/>
<path d="M356.396 761.76C357.004 761.352 357.635 760.963 358.289 760.598L394.898 797.209C394.534 797.858 394.146 798.492 393.738 799.099L356.396 761.76Z" fill="white"/>
<path d="M362.368 758.746C362.957 758.536 363.555 758.346 364.16 758.178L397.319 791.337C397.149 791.94 396.959 792.54 396.749 793.128L362.368 758.746Z" fill="white"/>
<path d="M369.511 757.253C370.134 757.211 370.761 757.189 371.39 757.189C371.688 757.189 371.986 757.194 372.284 757.204L398.292 783.213C398.321 784.145 398.305 785.073 398.243 785.984L369.511 757.253Z" fill="white"/>
<path d="M378.033 757.998C379.732 758.426 381.387 759.019 382.974 759.773L395.722 772.52C396.476 774.11 397.069 775.762 397.497 777.462L378.033 757.998Z" fill="white"/>
<path d="M345.387 777.356C345.549 776.717 345.739 776.08 345.954 775.447L380.049 809.541C379.416 809.757 378.777 809.945 378.139 810.109L345.387 777.356Z" fill="white"/>
</g>
<mask id="mask3_165_58128" style="mask-type:luminance" maskUnits="userSpaceOnUse" x="258" y="545" width="402" height="322">
<path d="M659.283 545.857H258.836V866.403H659.283V545.857Z" fill="white"/>
</mask>
<g mask="url(#mask3_165_58128)">
<path d="M451.32 610.772C463.329 622.864 459.156 652.156 439.626 688.698C416.57 731.835 400.474 683.765 415.305 648.288C427.55 618.994 440.509 599.885 451.32 610.772Z" fill="url(#paint76_linear_165_58128)"/>
<path d="M564.269 814.152L564.271 822.643C564.271 822.643 538.345 829.128 538.344 822.647C538.344 820.769 537.12 818.046 536.785 817.4C535.747 815.406 534.458 801.036 547.486 799.544C565.177 797.519 564.269 814.152 564.269 814.152Z" fill="white"/>
<path d="M564.202 821.696L564.277 850.597L550.457 850.599L550.456 840.751L540.61 850.6L491.063 850.609C488.693 850.609 487.505 847.744 489.181 846.068L495.534 839.713C498.346 836.9 502.16 835.318 506.138 835.317L516.947 835.316C520.925 835.315 524.74 833.735 527.552 830.921L538.285 820.958L564.202 821.696Z" fill="#F5C189"/>
<path d="M564.273 831.852L564.235 820.784L538.316 820.153L530.558 827.913L564.273 831.852Z" fill="#F5C189"/>
<path d="M524.39 837.787L525.211 837.33L522.274 832.062L521.453 832.52L524.39 837.787Z" fill="white"/>
<path d="M529.168 835.652L529.934 835.107L525.96 829.514L525.194 830.06L529.168 835.652Z" fill="white"/>
<path d="M533.109 831.76L533.767 831.09L529.447 826.85L528.789 827.52L533.109 831.76Z" fill="white"/>
<path d="M529.924 828.56C530.062 828.602 530.215 828.579 530.337 828.491L539.702 821.715C540.748 820.959 541.388 819.783 541.46 818.493C541.531 817.204 541.022 815.969 540.066 815.101C538.987 814.12 537.502 813.763 536.094 814.141C534.688 814.519 533.583 815.572 533.139 816.959L529.615 827.966C529.552 828.159 529.621 828.372 529.786 828.49C529.829 828.521 529.876 828.545 529.924 828.56ZM538.172 815.078C538.632 815.219 539.064 815.461 539.435 815.796C540.18 816.472 540.576 817.438 540.521 818.443C540.466 819.448 539.966 820.362 539.15 820.953L530.946 826.891L534.034 817.245C534.38 816.163 535.242 815.343 536.338 815.048C536.952 814.884 537.585 814.899 538.172 815.078Z" fill="white"/>
<path d="M530.336 828.56C530.475 828.603 530.631 828.579 530.753 828.488C530.916 828.367 530.983 828.156 530.919 827.963L527.298 816.988C526.841 815.605 525.721 814.567 524.317 814.195C522.906 813.829 521.425 814.201 520.355 815.19C519.406 816.065 518.909 817.308 518.991 818.596C519.073 819.885 519.725 821.053 520.778 821.801L530.201 828.493C530.243 828.523 530.288 828.546 530.336 828.56ZM524.222 815.145C525.254 815.461 526.064 816.251 526.405 817.283L529.578 826.898L521.323 821.035C520.501 820.452 519.994 819.54 519.929 818.535C519.865 817.53 520.252 816.563 520.993 815.88C521.828 815.11 522.982 814.821 524.081 815.106C524.128 815.118 524.175 815.131 524.222 815.145Z" fill="white"/>
<path d="M452.5 685.471C452.5 685.471 482.215 764.413 493.326 785.378C504.437 806.342 528.8 822.461 528.8 822.461L574.432 814.991C574.432 814.991 513.11 736.682 519.974 692.104C524.625 661.899 452.5 685.471 452.5 685.471Z" fill="url(#paint77_linear_165_58128)"/>
<path d="M557.481 817.585L565.519 816.376C541.489 789.673 510.361 744.248 510.475 743.671L504.018 742.407C503.906 742.982 515.461 773.811 557.481 817.585Z" fill="white"/>
<path d="M528.634 823.051L574.626 815.419L574.239 814.56L528.965 821.872C527.209 819.349 502.333 800.96 493.74 785.152C484.515 768.183 478.329 750.228 478.268 750.049L477.379 750.353C477.44 750.533 483.651 768.561 492.915 785.601C502.129 802.551 528.288 822.543 528.412 822.725L528.634 823.051Z" fill="#020208"/>
<path d="M474.484 741.966L452.501 685.47C452.501 685.47 500.575 665.922 515.565 683.134C518.999 687.078 521.159 698.375 520.941 698.733C520.724 699.09 521.339 706.314 520.854 710.846C518.994 710.013 475.794 731.949 474.484 741.966Z" fill="#020208"/>
<path d="M450.857 814.82V822.931C450.857 822.931 424.929 829.414 424.929 822.931C424.929 820.752 421.411 803.252 438.249 802.214C452.011 801.366 450.857 814.82 450.857 814.82Z" fill="white"/>
<path d="M450.857 820.654V850.885H437.037V841.039L427.19 850.885H377.643C375.273 850.885 374.086 848.019 375.762 846.343L382.115 839.989C384.928 837.176 388.743 835.595 392.721 835.595H403.53C407.509 835.595 411.323 834.016 414.136 831.203L424.902 820.438L450.857 820.654Z" fill="#F5C189"/>
<path d="M450.857 832.141V820.653L424.902 820.438L417.142 828.197L450.857 832.141Z" fill="#F5C189"/>
<path d="M410.973 838.07L411.795 837.613L408.858 832.344L408.037 832.802L410.973 838.07Z" fill="white"/>
<path d="M415.752 835.933L416.517 835.388L412.544 829.797L411.778 830.341L415.752 835.933Z" fill="white"/>
<path d="M419.693 832.045L420.352 831.375L416.032 827.133L415.373 827.803L419.693 832.045Z" fill="white"/>
<path d="M416.644 828.864C416.741 828.864 416.839 828.834 416.92 828.775L426.285 822.001C427.332 821.243 427.973 820.07 428.044 818.779C428.116 817.49 427.608 816.253 426.651 815.386C425.573 814.408 424.087 814.045 422.68 814.425C421.273 814.803 420.169 815.857 419.724 817.243L416.197 828.25C416.135 828.443 416.204 828.655 416.369 828.775C416.451 828.833 416.549 828.864 416.644 828.864ZM423.791 815.219C424.605 815.219 425.399 815.518 426.019 816.082C426.766 816.758 427.161 817.723 427.106 818.728C427.05 819.733 426.551 820.648 425.734 821.238L417.529 827.174L420.62 817.53C420.966 816.449 421.828 815.627 422.925 815.333C423.211 815.256 423.502 815.219 423.791 815.219Z" fill="white"/>
<path d="M417.059 828.864C417.158 828.864 417.255 828.834 417.338 828.773C417.502 828.652 417.569 828.44 417.505 828.247L413.885 817.271C413.43 815.887 412.316 814.843 410.906 814.477C409.497 814.113 408.014 814.483 406.943 815.472C405.993 816.348 405.496 817.588 405.579 818.878C405.66 820.167 406.312 821.335 407.366 822.083L416.786 828.777C416.868 828.836 416.964 828.864 417.059 828.864ZM409.829 815.28C410.108 815.28 410.39 815.315 410.67 815.387C411.769 815.673 412.637 816.486 412.992 817.565L416.164 827.181L407.91 821.318C407.088 820.734 406.581 819.823 406.517 818.819C406.452 817.813 406.84 816.845 407.58 816.162C408.204 815.587 409.006 815.28 409.829 815.28Z" fill="white"/>
<path d="M448.252 670.996C448.252 670.996 439.534 706.672 427.941 732.133C416.348 757.595 412.388 814.831 412.388 814.831L454.746 819.283C454.746 819.283 451.575 793.341 472.759 763.867C491.762 737.427 510.248 709.029 512 696.435C515.704 669.804 448.252 670.996 448.252 670.996Z" fill="url(#paint78_linear_165_58128)"/>
<path d="M445.938 818.356L446.873 818.454C447.722 810.381 449.639 803.468 451.669 796.149C454.544 785.783 457.201 783.846 464.147 770.07C475.879 746.8 481.818 713.938 481.939 713.632L481.063 713.288C480.944 713.594 475.021 746.417 463.309 769.648C456.414 783.322 453.624 785.587 450.763 795.898C448.723 803.256 446.795 810.205 445.938 818.356Z" fill="white"/>
<path d="M411.896 815.251L455.116 819.794L455.206 819.384L454.378 818.771L412.879 814.41L418.379 773.141L417.441 773.094L411.896 815.251Z" fill="#020208"/>
<path d="M506.717 710.412C502.653 709.873 490.011 703.107 486.073 701.881C474.804 698.374 462.336 696.184 456.216 703.658C451.305 709.655 455.963 759.999 455.438 761.073C447.683 760.162 428.392 752.41 423.865 743.776L448.56 671.183C448.56 671.183 483.672 670.268 502.301 679.234C519.387 687.456 510.067 703.86 506.717 710.412Z" fill="url(#paint79_linear_165_58128)"/>
<path d="M505.839 610.733C505.839 610.733 471.839 597.549 441.302 608.341C410.765 619.133 418.719 721.708 410.315 740.638C410.315 740.638 430.421 748.492 454.673 747.829C454.673 747.829 442.503 680.641 452.916 632.273L476.746 634.126L505.839 610.733Z" fill="url(#paint80_linear_165_58128)"/>
<path d="M475.55 623.562C475.55 623.562 479.088 633.072 475.026 637.772C470.965 642.473 458.015 644.564 455.368 639.26C454.162 636.845 453.336 633.908 452.793 631.427C452.145 628.46 472.327 623.506 475.55 623.562Z" fill="url(#paint81_linear_165_58128)"/>
<path d="M449.012 693.268C460.842 695.206 480.983 697.657 494.461 694.692C511.241 691.002 497.184 644.449 483.466 628.719C480.737 625.583 478.015 623.672 475.553 623.563L467.562 633.414L462.842 639.234L452.913 632.276C448.788 651.43 448.203 673.552 449.012 693.268Z" fill="url(#paint82_linear_165_58128)"/>
<path d="M453.43 646.769C454.128 649.538 454.962 652.264 455.995 654.925C456.096 655.169 456.199 655.413 456.301 655.657C455.967 656.082 455.641 656.512 455.335 656.976C452.469 661.314 449.678 666.237 448.783 671.366C449.083 658.06 450.267 644.558 452.913 632.275L456.498 634.786C453.802 638.215 452.39 642.644 453.43 646.769Z" fill="url(#paint83_linear_165_58128)"/>
<path d="M449.815 681.211C455.184 693.786 469.809 694.872 481.832 692.465L481.33 696.042C469.933 696.26 457.392 694.64 449.012 693.268C448.8 688.083 448.688 682.728 448.707 677.307C448.913 678.607 449.26 679.909 449.815 681.211Z" fill="url(#paint84_linear_165_58128)"/>
<path d="M468.748 645.786L479.983 640.268L479.568 639.425L468.935 644.646L463.175 638.9L462.511 639.567L468.748 645.786Z" fill="black"/>
<path d="M457.277 644.213L462.945 639.571L462.347 638.843L457.183 643.077L451.159 639.626L450.693 640.44L457.277 644.213Z" fill="black"/>
<path d="M475.258 625.624C475.258 625.624 478.688 719.962 475.352 749.778C475.352 749.778 525.75 756.981 547.749 744.631C547.749 744.631 554.223 644.773 518.729 618.249C485.711 593.574 475.292 623.339 475.258 625.624Z" fill="url(#paint85_linear_165_58128)"/>
<path d="M462.933 639.871L475.915 623.859L475.184 623.269L462.754 638.599L453.184 631.893L452.644 632.662L462.933 639.871Z" fill="black"/>
<path d="M459.848 692.53L460.577 691.936C457.371 688.009 458.566 679.452 459.526 672.577C460.186 667.853 460.756 663.774 459.857 661.869C457.836 657.591 463.074 642.117 463.127 641.961L462.236 641.657C462.015 642.309 456.824 657.652 459.007 662.271C459.786 663.921 459.208 668.062 458.596 672.446C457.61 679.503 456.384 688.286 459.848 692.53Z" fill="black"/>
<path d="M403.303 638.734L418.87 635.14C419.903 634.901 420.4 633.906 419.982 632.915L408.038 604.646C407.62 603.656 406.445 603.046 405.414 603.284L389.848 606.878C388.816 607.116 388.319 608.112 388.737 609.102L400.677 637.372C401.097 638.362 402.272 638.972 403.303 638.734Z" fill="url(#paint86_linear_165_58128)"/>
<path d="M390.886 609.913C391.193 610.641 392.057 611.089 392.815 610.915C393.572 610.74 393.938 610.007 393.63 609.279C393.324 608.552 392.459 608.104 391.702 608.279C390.943 608.454 390.578 609.186 390.886 609.913Z" fill="white"/>
<path d="M385.93 645.701C386.053 640.813 384.89 635.841 385.868 631.457C387.481 624.232 389.291 622.606 387.958 618.263C386.626 613.92 395.155 618.383 394.52 622.459C394.52 622.459 398.885 617.408 402.345 619.845C405.805 622.283 406.022 624.309 411.589 625.462C417.155 626.616 415.277 639.589 407.741 638.626C403.833 638.126 404.81 641.546 405.893 645.416C406.389 647.19 408.895 659.607 394.78 659.956C381.673 660.281 385.883 647.553 385.93 645.701Z" fill="url(#paint87_linear_165_58128)"/>
<path d="M422.503 705.208C405.823 707.153 388.864 678.623 377.897 656.223L408.57 639.05C408.57 639.05 423.451 656.503 428.572 665.909C433.361 674.705 440.706 703.086 422.503 705.208Z" fill="url(#paint88_linear_165_58128)"/>
<path d="M465.83 614.814C465.83 614.814 475.356 625.845 465.789 630.96C457.465 635.412 450.714 625.928 450.714 625.928L465.83 614.814Z" fill="url(#paint89_linear_165_58128)"/>
<path d="M447.166 607.167C447.166 607.167 444.772 622.905 447.027 627.02C449.28 631.136 457.885 628.94 460.84 627.154C462.56 626.115 464.309 623.888 465.263 620.447C465.263 620.447 468.341 620.833 469.777 617.646C471.214 614.458 467.818 614.916 467.818 614.916C467.818 614.916 460.179 601.615 447.166 607.167Z" fill="url(#paint90_linear_165_58128)"/>
<path d="M460.741 608.726C460.741 608.726 447.598 613.196 443.751 605.57C440.081 598.294 444.644 594.833 447.465 595.564C450.286 596.296 451.301 600.93 454.371 600.607C456.875 600.344 463.093 597.565 464.561 603.669C464.561 603.669 471.819 602.906 469.377 610.956C466.933 619.007 464.339 618.177 463.184 615.607C462.491 614.059 462.732 612.262 462.732 612.262C462.732 612.262 460.411 613.771 460.741 608.726Z" fill="url(#paint91_linear_165_58128)"/>
<path d="M521.693 737.74C519.333 741.507 515.896 744.613 514.433 748.427C511.781 755.339 512.388 757.695 508.876 760.575C505.364 763.456 514.939 764.455 516.664 760.708C516.664 760.708 517.505 767.331 521.737 767.214C525.968 767.097 527.271 765.528 532.546 767.647C537.821 769.765 543.432 757.92 536.621 754.554C532.497 752.516 536.87 749.712 540.36 746.532C541.497 745.496 549.121 736.303 539.006 729.553C531.927 724.829 522.331 736.719 521.693 737.74Z" fill="url(#paint92_linear_165_58128)"/>
<path d="M552.346 688.217C552.346 688.217 562.337 702.174 546.465 751.322L512.622 738.875L518.641 698.034C518.641 698.034 533.168 677.432 552.346 688.217Z" fill="url(#paint93_linear_165_58128)"/>
<path d="M527.708 681.667C519.226 686.564 516.315 697.428 521.212 705.91C526.11 714.393 536.973 717.304 545.456 712.406C553.938 707.509 556.849 696.645 551.952 688.163C547.054 679.68 536.191 676.769 527.708 681.667Z" fill="url(#paint94_linear_165_58128)"/>
<path d="M514.642 615.366C531.749 625.067 543.641 641.571 553.436 686.667C560.42 718.815 534.036 704.391 516.424 684.364C509.331 676.297 489.801 644.672 490.772 638.161C491.68 632.067 507.472 611.299 514.642 615.366Z" fill="url(#paint95_linear_165_58128)"/>
<path d="M508.59 613.732C498.587 612.68 489.611 619.948 488.56 629.952C487.509 639.955 494.777 648.93 504.78 649.981C514.783 651.033 523.758 643.765 524.809 633.761C525.861 623.758 518.593 614.783 508.59 613.732Z" fill="url(#paint96_linear_165_58128)"/>
</g>
<mask id="mask4_165_58128" style="mask-type:luminance" maskUnits="userSpaceOnUse" x="-301" y="154" width="441" height="353">
<path d="M139.815 154.129H-300.677V506.729H139.815V154.129Z" fill="white"/>
</mask>
<g mask="url(#mask4_165_58128)">
<path d="M-56.8366 291.907C-36.7634 288.086 5.64323 280.31 9.80075 294.011C26.1441 347.887 11.216 386.892 11.216 386.892C11.216 386.892 -48.7757 400.559 -54.6342 366.997C-56.7466 354.899 -59.6381 334.101 -59.6381 334.101C-67.7045 316.424 -66.8024 293.805 -56.8366 291.907Z" fill="#505071"/>
<path d="M8.73159 291.71C8.73159 291.71 30.7022 317.024 36.8212 355.488C36.8212 355.488 30.0208 356.525 22.789 356.836C15.5571 357.148 3.54947 354.749 -1.01381 347.686C-4.32638 342.559 -15.2247 324.882 -20.3642 316.295C-32.5846 295.879 8.73159 291.71 8.73159 291.71Z" fill="#505071"/>
<path d="M-5.78073 286.953C-16.401 287.788 -24.3457 297.089 -23.5105 307.709C-22.6753 318.33 -13.3743 326.274 -2.75403 325.439C7.86625 324.604 15.811 315.303 14.9758 304.683C14.1405 294.062 4.83955 286.118 -5.78073 286.953Z" fill="#505071"/>
<path d="M-95.2623 347.588C-90.8173 335.622 -77.5139 329.528 -65.5486 333.973L-3.29376 357.1C8.67165 361.546 14.7685 374.849 10.3225 386.815L9.89487 387.967C5.44988 399.932 -7.85338 406.028 -19.8187 401.583L-82.0747 378.455C-94.0401 374.009 -100.136 360.706 -95.6899 348.74L-95.2623 347.588Z" fill="url(#paint97_linear_165_58128)"/>
<path d="M-69.7768 347.72L11.7821 378.495L11.414 379.462L-70.1448 348.688C-71.4877 348.177 -71.4606 347.08 -69.7768 347.72Z" fill="black"/>
<path d="M-22.8643 395.752C-22.8643 395.752 -31.5236 401.794 -37.8881 400.172C-44.2525 398.551 -17.5223 385.457 -15.4645 384.257C-10.5006 381.361 -7.82278 382.317 -1.7658 380.912C4.29118 379.508 7.04558 334.446 28.7443 344.973C34.53 347.78 43.4046 357.278 27.9264 375.652C24.1997 380.078 20.7836 387.778 9.04748 394.726C1.76792 399.035 1.95273 401.51 -5.53621 400.722C-5.53621 400.722 -11.1022 402.547 -12.5056 406.271C-13.909 409.995 -18.1733 414.154 -20.2799 410.552C-22.3865 406.951 -14.5311 398.885 -14.5311 398.885C-14.5311 398.885 -29.332 411.744 -32.5705 410.078C-35.8081 408.412 -22.8643 395.752 -22.8643 395.752Z" fill="url(#paint98_linear_165_58128)"/>
</g>
</g>
<defs>
<linearGradient id="paint0_linear_165_58128" x1="363.376" y1="260.308" x2="444.383" y2="259.838" gradientUnits="userSpaceOnUse">
<stop stop-color="#E2A360"/>
<stop offset="0.5" stop-color="#C88C4C"/>
<stop offset="1" stop-color="#9D6F3F"/>
</linearGradient>
<linearGradient id="paint1_linear_165_58128" x1="-2147.43" y1="279.013" x2="-1945.87" y2="279.013" gradientUnits="userSpaceOnUse">
<stop stop-color="#09092A"/>
<stop offset="0.5" stop-color="#1C1D4A"/>
<stop offset="1" stop-color="#2F306A"/>
</linearGradient>
<linearGradient id="paint2_linear_165_58128" x1="-2147.43" y1="304.395" x2="-1945.87" y2="304.395" gradientUnits="userSpaceOnUse">
<stop stop-color="#09092A"/>
<stop offset="0.5" stop-color="#1C1D4A"/>
<stop offset="1" stop-color="#2F306A"/>
</linearGradient>
<linearGradient id="paint3_linear_165_58128" x1="-2147.43" y1="329.774" x2="-1945.87" y2="329.774" gradientUnits="userSpaceOnUse">
<stop stop-color="#09092A"/>
<stop offset="0.5" stop-color="#1C1D4A"/>
<stop offset="1" stop-color="#2F306A"/>
</linearGradient>
<linearGradient id="paint4_linear_165_58128" x1="-2147.43" y1="355.155" x2="-1945.87" y2="355.155" gradientUnits="userSpaceOnUse">
<stop stop-color="#09092A"/>
<stop offset="0.5" stop-color="#1C1D4A"/>
<stop offset="1" stop-color="#2F306A"/>
</linearGradient>
<linearGradient id="paint5_linear_165_58128" x1="-2147.43" y1="380.536" x2="-1945.87" y2="380.536" gradientUnits="userSpaceOnUse">
<stop stop-color="#09092A"/>
<stop offset="0.5" stop-color="#1C1D4A"/>
<stop offset="1" stop-color="#2F306A"/>
</linearGradient>
<linearGradient id="paint6_linear_165_58128" x1="-2147.43" y1="405.916" x2="-1945.87" y2="405.916" gradientUnits="userSpaceOnUse">
<stop stop-color="#09092A"/>
<stop offset="0.5" stop-color="#1C1D4A"/>
<stop offset="1" stop-color="#2F306A"/>
</linearGradient>
<linearGradient id="paint7_linear_165_58128" x1="-2147.43" y1="431.296" x2="-1945.87" y2="431.296" gradientUnits="userSpaceOnUse">
<stop stop-color="#09092A"/>
<stop offset="0.5" stop-color="#1C1D4A"/>
<stop offset="1" stop-color="#2F306A"/>
</linearGradient>
<radialGradient id="paint8_radial_165_58128" cx="0" cy="0" r="1" gradientUnits="userSpaceOnUse" gradientTransform="translate(174.949 848.685) scale(687.222 687.222)">
<stop stop-color="#9192CF"/>
<stop offset="0.5" stop-color="#CACAE8"/>
<stop offset="1" stop-color="white"/>
</radialGradient>
<linearGradient id="paint9_linear_165_58128" x1="639.802" y1="434.49" x2="701.695" y2="496.362" gradientUnits="userSpaceOnUse">
<stop stop-color="#57D16B"/>
<stop offset="0.46" stop-color="#46479B"/>
<stop offset="1" stop-color="#191B7B"/>
</linearGradient>
<linearGradient id="paint10_linear_165_58128" x1="74.7774" y1="259.098" x2="187.666" y2="237.827" gradientUnits="userSpaceOnUse">
<stop stop-color="#167FFC"/>
<stop offset="0.5" stop-color="#2B62A6"/>
<stop offset="1" stop-color="#2B2C5E"/>
</linearGradient>
<linearGradient id="paint11_linear_165_58128" x1="545.083" y1="337.554" x2="519.01" y2="429.824" gradientUnits="userSpaceOnUse">
<stop stop-color="#9192CF"/>
<stop offset="0.5" stop-color="#CACAE8"/>
<stop offset="1" stop-color="white"/>
</linearGradient>
<linearGradient id="paint12_linear_165_58128" x1="537.727" y1="335.732" x2="511.654" y2="428.003" gradientUnits="userSpaceOnUse">
<stop stop-color="#9192CF"/>
<stop offset="0.5" stop-color="#CACAE8"/>
<stop offset="1" stop-color="white"/>
</linearGradient>
<linearGradient id="paint13_linear_165_58128" x1="546.017" y1="337.665" x2="519.944" y2="429.936" gradientUnits="userSpaceOnUse">
<stop stop-color="#9192CF"/>
<stop offset="0.5" stop-color="#CACAE8"/>
<stop offset="1" stop-color="white"/>
</linearGradient>
<linearGradient id="paint14_linear_165_58128" x1="551.506" y1="339.265" x2="525.432" y2="431.54" gradientUnits="userSpaceOnUse">
<stop stop-color="#9192CF"/>
<stop offset="0.5" stop-color="#CACAE8"/>
<stop offset="1" stop-color="white"/>
</linearGradient>
<linearGradient id="paint15_linear_165_58128" x1="534.927" y1="335.399" x2="508.853" y2="427.675" gradientUnits="userSpaceOnUse">
<stop stop-color="#9192CF"/>
<stop offset="0.5" stop-color="#CACAE8"/>
<stop offset="1" stop-color="white"/>
</linearGradient>
<linearGradient id="paint16_linear_165_58128" x1="75.7159" y1="809.275" x2="-127.973" y2="605.587" gradientUnits="userSpaceOnUse">
<stop stop-color="#E2A360"/>
<stop offset="0.5" stop-color="#C88C4C"/>
<stop offset="1" stop-color="#9D6F3F"/>
</linearGradient>
<linearGradient id="paint17_linear_165_58128" x1="588.964" y1="701.175" x2="688.984" y2="701.175" gradientUnits="userSpaceOnUse">
<stop stop-color="#F0B575"/>
<stop offset="0.26" stop-color="#E29E55"/>
<stop offset="0.51" stop-color="#D38531"/>
<stop offset="0.75" stop-color="#AE7537"/>
<stop offset="0.98" stop-color="#8C653B"/>
</linearGradient>
<linearGradient id="paint18_linear_165_58128" x1="588.964" y1="701.175" x2="646.859" y2="701.175" gradientUnits="userSpaceOnUse">
<stop stop-color="#C57F34"/>
<stop offset="0.43" stop-color="#82694F"/>
<stop offset="1" stop-color="#323352"/>
</linearGradient>
<linearGradient id="paint19_linear_165_58128" x1="452.662" y1="588.373" x2="465.023" y2="588.373" gradientUnits="userSpaceOnUse">
<stop stop-color="#09092A"/>
<stop offset="0.5" stop-color="#1C1D4A"/>
<stop offset="1" stop-color="#2F306A"/>
</linearGradient>
<linearGradient id="paint20_linear_165_58128" x1="455.482" y1="588.373" x2="461.819" y2="588.373" gradientUnits="userSpaceOnUse">
<stop stop-color="#F0B575"/>
<stop offset="0.26" stop-color="#E29E55"/>
<stop offset="0.51" stop-color="#D38531"/>
<stop offset="0.75" stop-color="#AE7537"/>
<stop offset="0.98" stop-color="#8C653B"/>
</linearGradient>
<linearGradient id="paint21_linear_165_58128" x1="556.063" y1="579.913" x2="571.673" y2="579.913" gradientUnits="userSpaceOnUse">
<stop stop-color="#09092A"/>
<stop offset="0.5" stop-color="#1C1D4A"/>
<stop offset="1" stop-color="#2F306A"/>
</linearGradient>
<linearGradient id="paint22_linear_165_58128" x1="559.824" y1="579.914" x2="567.831" y2="579.914" gradientUnits="userSpaceOnUse">
<stop stop-color="#F0B575"/>
<stop offset="0.26" stop-color="#E29E55"/>
<stop offset="0.51" stop-color="#D38531"/>
<stop offset="0.75" stop-color="#AE7537"/>
<stop offset="0.98" stop-color="#8C653B"/>
</linearGradient>
<linearGradient id="paint23_linear_165_58128" x1="-2249.61" y1="495.203" x2="-2292.78" y2="687.843" gradientUnits="userSpaceOnUse">
<stop stop-color="#191A58"/>
<stop offset="0.5" stop-color="#27297C"/>
<stop offset="1" stop-color="#439D52"/>
</linearGradient>
<linearGradient id="paint24_linear_165_58128" x1="462.122" y1="737.929" x2="569.016" y2="559.714" gradientUnits="userSpaceOnUse">
<stop stop-color="#191A58"/>
<stop offset="0.5" stop-color="#27297C"/>
<stop offset="1" stop-color="#439D52"/>
</linearGradient>
<linearGradient id="paint25_linear_165_58128" x1="-2245.3" y1="143.466" x2="-2329.49" y2="399.855" gradientUnits="userSpaceOnUse">
<stop stop-color="#191A58"/>
<stop offset="0.5" stop-color="#27297C"/>
<stop offset="1" stop-color="#439D52"/>
</linearGradient>
<linearGradient id="paint26_linear_165_58128" x1="443.982" y1="737.486" x2="516.18" y2="467.738" gradientUnits="userSpaceOnUse">
<stop stop-color="#191A58"/>
<stop offset="0.5" stop-color="#27297C"/>
<stop offset="1" stop-color="#439D52"/>
</linearGradient>
<linearGradient id="paint27_linear_165_58128" x1="394.381" y1="782.016" x2="562.199" y2="782.769" gradientUnits="userSpaceOnUse">
<stop stop-color="#D3C0AB"/>
<stop offset="0.5" stop-color="#D4E8D7"/>
<stop offset="0.8" stop-color="white"/>
<stop offset="0.9" stop-color="#D4E8D7"/>
<stop offset="1" stop-color="#D3C0AB"/>
</linearGradient>
<linearGradient id="paint28_linear_165_58128" x1="62.8675" y1="847.114" x2="133.369" y2="780.782" gradientUnits="userSpaceOnUse">
<stop stop-color="white"/>
<stop offset="0.5" stop-color="#D4E8D7"/>
<stop offset="1" stop-color="#D3C0AB"/>
</linearGradient>
<linearGradient id="paint29_linear_165_58128" x1="441.165" y1="591.429" x2="-161.407" y2="591.429" gradientUnits="userSpaceOnUse">
<stop stop-color="white"/>
<stop offset="0.5" stop-color="#D4E8D7"/>
<stop offset="1" stop-color="#D3C0AB"/>
</linearGradient>
<linearGradient id="paint30_linear_165_58128" x1="-160.229" y1="589.549" x2="436.876" y2="589.549" gradientUnits="userSpaceOnUse">
<stop stop-color="#09092A"/>
<stop offset="0.5" stop-color="#1C1D4A"/>
<stop offset="1" stop-color="#2F306A"/>
</linearGradient>
<linearGradient id="paint31_linear_165_58128" x1="-33.326" y1="427.288" x2="-33.326" y2="732.56" gradientUnits="userSpaceOnUse">
<stop stop-color="#09092A"/>
<stop offset="0.5" stop-color="#1C1D4A"/>
<stop offset="1" stop-color="#2F306A"/>
</linearGradient>
<linearGradient id="paint32_linear_165_58128" x1="-83.1475" y1="515.287" x2="112.286" y2="710.72" gradientUnits="userSpaceOnUse">
<stop stop-color="#167FFC"/>
<stop offset="0.5" stop-color="#2B62A6"/>
<stop offset="1" stop-color="#2B2C5E"/>
</linearGradient>
<radialGradient id="paint33_radial_165_58128" cx="0" cy="0" r="1" gradientUnits="userSpaceOnUse" gradientTransform="translate(61.6855 680.248) scale(256.58 256.58)">
<stop stop-color="#9192CF"/>
<stop offset="0.5" stop-color="#CACAE8"/>
<stop offset="1" stop-color="white"/>
</radialGradient>
<linearGradient id="paint34_linear_165_58128" x1="223.269" y1="-16.8204" x2="229.039" y2="-16.1502" gradientUnits="userSpaceOnUse">
<stop stop-color="#09092A"/>
<stop offset="0.5" stop-color="#1C1D4A"/>
<stop offset="1" stop-color="#2F306A"/>
</linearGradient>
<linearGradient id="paint35_linear_165_58128" x1="668.6" y1="661.93" x2="668.6" y2="690.254" gradientUnits="userSpaceOnUse">
<stop stop-color="#09092A"/>
<stop offset="0.5" stop-color="#1C1D4A"/>
<stop offset="1" stop-color="#2F306A"/>
</linearGradient>
<linearGradient id="paint36_linear_165_58128" x1="-160.528" y1="811.926" x2="-132.392" y2="808.658" gradientUnits="userSpaceOnUse">
<stop stop-color="#09092A"/>
<stop offset="0.5" stop-color="#1C1D4A"/>
<stop offset="1" stop-color="#2F306A"/>
</linearGradient>
<radialGradient id="paint37_radial_165_58128" cx="0" cy="0" r="1" gradientUnits="userSpaceOnUse" gradientTransform="translate(9.91419 561.348) scale(66.0879 66.0879)">
<stop stop-color="#E2A360"/>
<stop offset="0.5" stop-color="#C88C4C"/>
<stop offset="1" stop-color="#9D6F3F"/>
</radialGradient>
<linearGradient id="paint38_linear_165_58128" x1="544.799" y1="619.629" x2="617.089" y2="696.839" gradientUnits="userSpaceOnUse">
<stop stop-color="#B7D2BB"/>
<stop offset="0.5" stop-color="#D9E7DC"/>
<stop offset="1" stop-color="white"/>
</linearGradient>
<radialGradient id="paint39_radial_165_58128" cx="0" cy="0" r="1" gradientUnits="userSpaceOnUse" gradientTransform="translate(595.59 580.155) scale(57.0622 57.0622)">
<stop stop-color="#1F2051"/>
<stop offset="0.5" stop-color="#393A79"/>
<stop offset="1" stop-color="#57589E"/>
</radialGradient>
<linearGradient id="paint40_linear_165_58128" x1="249.245" y1="-42.9311" x2="277.38" y2="-39.6617" gradientUnits="userSpaceOnUse">
<stop stop-color="#09092A"/>
<stop offset="0.5" stop-color="#1C1D4A"/>
<stop offset="1" stop-color="#2F306A"/>
</linearGradient>
<linearGradient id="paint41_linear_165_58128" x1="85.1161" y1="677.909" x2="85.1161" y2="672.514" gradientUnits="userSpaceOnUse">
<stop stop-color="#09092A"/>
<stop offset="0.5" stop-color="#1C1D4A"/>
<stop offset="1" stop-color="#2F306A"/>
</linearGradient>
<linearGradient id="paint42_linear_165_58128" x1="48.4554" y1="677.909" x2="48.4554" y2="672.514" gradientUnits="userSpaceOnUse">
<stop stop-color="#09092A"/>
<stop offset="0.5" stop-color="#1C1D4A"/>
<stop offset="1" stop-color="#2F306A"/>
</linearGradient>
<linearGradient id="paint43_linear_165_58128" x1="163.136" y1="579.206" x2="261.667" y2="579.923" gradientUnits="userSpaceOnUse">
<stop stop-color="#167FFC"/>
<stop offset="0.5" stop-color="#2B62A6"/>
<stop offset="1" stop-color="#2B2C5E"/>
</linearGradient>
<linearGradient id="paint44_linear_165_58128" x1="163.137" y1="579.206" x2="261.669" y2="579.923" gradientUnits="userSpaceOnUse">
<stop stop-color="#167FFC"/>
<stop offset="0.5" stop-color="#2B62A6"/>
<stop offset="1" stop-color="#2B2C5E"/>
</linearGradient>
<linearGradient id="paint45_linear_165_58128" x1="362.421" y1="488.966" x2="399.966" y2="488.966" gradientUnits="userSpaceOnUse">
<stop stop-color="#167FFC"/>
<stop offset="0.5" stop-color="#2B62A6"/>
<stop offset="1" stop-color="#2B2C5E"/>
</linearGradient>
<linearGradient id="paint46_linear_165_58128" x1="347.381" y1="488.966" x2="358.982" y2="488.966" gradientUnits="userSpaceOnUse">
<stop stop-color="#167FFC"/>
<stop offset="0.5" stop-color="#2B62A6"/>
<stop offset="1" stop-color="#2B2C5E"/>
</linearGradient>
<linearGradient id="paint47_linear_165_58128" x1="151.857" y1="613.05" x2="169.401" y2="613.05" gradientUnits="userSpaceOnUse">
<stop stop-color="#E2A360"/>
<stop offset="0.5" stop-color="#C88C4C"/>
<stop offset="1" stop-color="#9D6F3F"/>
</linearGradient>
<linearGradient id="paint48_linear_165_58128" x1="174.417" y1="613.05" x2="191.96" y2="613.05" gradientUnits="userSpaceOnUse">
<stop stop-color="#E2A360"/>
<stop offset="0.5" stop-color="#C88C4C"/>
<stop offset="1" stop-color="#9D6F3F"/>
</linearGradient>
<linearGradient id="paint49_linear_165_58128" x1="196.038" y1="613.05" x2="213.582" y2="613.05" gradientUnits="userSpaceOnUse">
<stop stop-color="#E2A360"/>
<stop offset="0.5" stop-color="#C88C4C"/>
<stop offset="1" stop-color="#9D6F3F"/>
</linearGradient>
<linearGradient id="paint50_linear_165_58128" x1="218.598" y1="613.05" x2="236.143" y2="613.05" gradientUnits="userSpaceOnUse">
<stop stop-color="#E2A360"/>
<stop offset="0.5" stop-color="#C88C4C"/>
<stop offset="1" stop-color="#9D6F3F"/>
</linearGradient>
<linearGradient id="paint51_linear_165_58128" x1="386.861" y1="439.146" x2="408.606" y2="439.146" gradientUnits="userSpaceOnUse">
<stop stop-color="#F0B575"/>
<stop offset="0.26" stop-color="#E29E55"/>
<stop offset="0.51" stop-color="#D38531"/>
<stop offset="0.75" stop-color="#AE7537"/>
<stop offset="0.98" stop-color="#8C653B"/>
</linearGradient>
<linearGradient id="paint52_linear_165_58128" x1="337.98" y1="652.529" x2="357.681" y2="652.529" gradientUnits="userSpaceOnUse">
<stop stop-color="#F0B575"/>
<stop offset="0.26" stop-color="#E29E55"/>
<stop offset="0.51" stop-color="#D38531"/>
<stop offset="0.75" stop-color="#AE7537"/>
<stop offset="0.98" stop-color="#8C653B"/>
</linearGradient>
<linearGradient id="paint53_linear_165_58128" x1="63.4957" y1="665.906" x2="44.6033" y2="641.035" gradientUnits="userSpaceOnUse">
<stop stop-color="#09092A"/>
<stop offset="0.5" stop-color="#1C1D4A"/>
<stop offset="1" stop-color="#2F306A"/>
</linearGradient>
<linearGradient id="paint54_linear_165_58128" x1="88.8762" y1="645.375" x2="69.9828" y2="620.503" gradientUnits="userSpaceOnUse">
<stop stop-color="#09092A"/>
<stop offset="0.5" stop-color="#1C1D4A"/>
<stop offset="1" stop-color="#2F306A"/>
</linearGradient>
<linearGradient id="paint55_linear_165_58128" x1="115.196" y1="622.771" x2="96.3038" y2="597.899" gradientUnits="userSpaceOnUse">
<stop stop-color="#09092A"/>
<stop offset="0.5" stop-color="#1C1D4A"/>
<stop offset="1" stop-color="#2F306A"/>
</linearGradient>
<linearGradient id="paint56_linear_165_58128" x1="139.637" y1="601.917" x2="120.745" y2="577.046" gradientUnits="userSpaceOnUse">
<stop stop-color="#09092A"/>
<stop offset="0.5" stop-color="#1C1D4A"/>
<stop offset="1" stop-color="#2F306A"/>
</linearGradient>
<radialGradient id="paint57_radial_165_58128" cx="0" cy="0" r="1" gradientUnits="userSpaceOnUse" gradientTransform="translate(-67.1674 336.265) scale(9.7555)">
<stop stop-color="#F0B575"/>
<stop offset="0.26" stop-color="#E29E55"/>
<stop offset="0.51" stop-color="#D38531"/>
<stop offset="0.75" stop-color="#AE7537"/>
<stop offset="0.98" stop-color="#8C653B"/>
</radialGradient>
<radialGradient id="paint58_radial_165_58128" cx="0" cy="0" r="1" gradientUnits="userSpaceOnUse" gradientTransform="translate(-259.871 336.35) scale(9.75549)">
<stop stop-color="#F0B575"/>
<stop offset="0.26" stop-color="#E29E55"/>
<stop offset="0.51" stop-color="#D38531"/>
<stop offset="0.75" stop-color="#AE7537"/>
<stop offset="0.98" stop-color="#8C653B"/>
</radialGradient>
<linearGradient id="paint59_linear_165_58128" x1="-5.12599" y1="447.604" x2="79.9324" y2="447.604" gradientUnits="userSpaceOnUse">
<stop stop-color="#C57F34"/>
<stop offset="0.43" stop-color="#82694F"/>
<stop offset="1" stop-color="#323352"/>
</linearGradient>
<linearGradient id="paint60_linear_165_58128" x1="101.096" y1="447.604" x2="186.156" y2="447.604" gradientUnits="userSpaceOnUse">
<stop stop-color="#C57F34"/>
<stop offset="0.43" stop-color="#82694F"/>
<stop offset="1" stop-color="#323352"/>
</linearGradient>
<linearGradient id="paint61_linear_165_58128" x1="208.258" y1="447.604" x2="293.319" y2="447.604" gradientUnits="userSpaceOnUse">
<stop stop-color="#C57F34"/>
<stop offset="0.43" stop-color="#82694F"/>
<stop offset="1" stop-color="#323352"/>
</linearGradient>
<linearGradient id="paint62_linear_165_58128" x1="-5.12599" y1="-2081.13" x2="48.0743" y2="-2081.13" gradientUnits="userSpaceOnUse">
<stop stop-color="#F0B575"/>
<stop offset="0.26" stop-color="#E29E55"/>
<stop offset="0.51" stop-color="#D38531"/>
<stop offset="0.75" stop-color="#AE7537"/>
<stop offset="0.98" stop-color="#8C653B"/>
</linearGradient>
<linearGradient id="paint63_linear_165_58128" x1="101.096" y1="-2081.13" x2="154.296" y2="-2081.13" gradientUnits="userSpaceOnUse">
<stop stop-color="#F0B575"/>
<stop offset="0.26" stop-color="#E29E55"/>
<stop offset="0.51" stop-color="#D38531"/>
<stop offset="0.75" stop-color="#AE7537"/>
<stop offset="0.98" stop-color="#8C653B"/>
</linearGradient>
<linearGradient id="paint64_linear_165_58128" x1="208.258" y1="-2081.13" x2="261.46" y2="-2081.13" gradientUnits="userSpaceOnUse">
<stop stop-color="#F0B575"/>
<stop offset="0.26" stop-color="#E29E55"/>
<stop offset="0.51" stop-color="#D38531"/>
<stop offset="0.75" stop-color="#AE7537"/>
<stop offset="0.98" stop-color="#8C653B"/>
</linearGradient>
<linearGradient id="paint65_linear_165_58128" x1="146.819" y1="705.175" x2="360.694" y2="705.175" gradientUnits="userSpaceOnUse">
<stop stop-color="#F0B575"/>
<stop offset="0.26" stop-color="#E29E55"/>
<stop offset="0.51" stop-color="#D38531"/>
<stop offset="0.75" stop-color="#AE7537"/>
<stop offset="0.98" stop-color="#8C653B"/>
</linearGradient>
<radialGradient id="paint66_radial_165_58128" cx="0" cy="0" r="1" gradientUnits="userSpaceOnUse" gradientTransform="translate(330.447 705.175) scale(18.0582 18.0582)">
<stop stop-color="#167FFC"/>
<stop offset="0.5" stop-color="#2B62A6"/>
<stop offset="1" stop-color="#2B2C5E"/>
</radialGradient>
<linearGradient id="paint67_linear_165_58128" x1="-390.533" y1="632.554" x2="27.4248" y2="632.554" gradientUnits="userSpaceOnUse">
<stop stop-color="#09092A"/>
<stop offset="0.5" stop-color="#1C1D4A"/>
<stop offset="1" stop-color="#2F306A"/>
</linearGradient>
<linearGradient id="paint68_linear_165_58128" x1="291.919" y1="635.373" x2="692.801" y2="635.373" gradientUnits="userSpaceOnUse">
<stop stop-color="#09092A"/>
<stop offset="0.5" stop-color="#1C1D4A"/>
<stop offset="1" stop-color="#2F306A"/>
</linearGradient>
<linearGradient id="paint69_linear_165_58128" x1="619.256" y1="571.813" x2="666.88" y2="565.096" gradientUnits="userSpaceOnUse">
<stop stop-color="#167FFC"/>
<stop offset="0.5" stop-color="#2B62A6"/>
<stop offset="1" stop-color="#2B2C5E"/>
</linearGradient>
<linearGradient id="paint70_linear_165_58128" x1="1541.49" y1="673.932" x2="1583.7" y2="650.875" gradientUnits="userSpaceOnUse">
<stop stop-color="#167FFC"/>
<stop offset="0.5" stop-color="#2B62A6"/>
<stop offset="1" stop-color="#2B2C5E"/>
</linearGradient>
<linearGradient id="paint71_linear_165_58128" x1="466.762" y1="743.476" x2="488.153" y2="743.476" gradientUnits="userSpaceOnUse">
<stop stop-color="#1F2051"/>
<stop offset="0.5" stop-color="#393A79"/>
<stop offset="1" stop-color="#57589E"/>
</linearGradient>
<linearGradient id="paint72_linear_165_58128" x1="262.779" y1="746.296" x2="285.967" y2="746.296" gradientUnits="userSpaceOnUse">
<stop stop-color="#1F2051"/>
<stop offset="0.5" stop-color="#393A79"/>
<stop offset="1" stop-color="#57589E"/>
</linearGradient>
<linearGradient id="paint73_linear_165_58128" x1="259.018" y1="739.717" x2="491.567" y2="739.717" gradientUnits="userSpaceOnUse">
<stop stop-color="#09092A"/>
<stop offset="0.5" stop-color="#1C1D4A"/>
<stop offset="1" stop-color="#2F306A"/>
</linearGradient>
<linearGradient id="paint74_linear_165_58128" x1="369" y1="742.536" x2="370.913" y2="852.864" gradientUnits="userSpaceOnUse">
<stop stop-color="#9798ED"/>
<stop offset="0.46" stop-color="#6466BE"/>
<stop offset="1" stop-color="#41427C"/>
</linearGradient>
<linearGradient id="paint75_linear_165_58128" x1="237.398" y1="835.598" x2="505.308" y2="835.598" gradientUnits="userSpaceOnUse">
<stop stop-color="#1F2051"/>
<stop offset="0.5" stop-color="#393A79"/>
<stop offset="1" stop-color="#57589E"/>
</linearGradient>
<linearGradient id="paint76_linear_165_58128" x1="437.687" y1="682.354" x2="422.631" y2="634.819" gradientUnits="userSpaceOnUse">
<stop stop-color="#E59743"/>
<stop offset="0.5" stop-color="#F2A350"/>
<stop offset="1" stop-color="#FEAE58"/>
</linearGradient>
<linearGradient id="paint77_linear_165_58128" x1="551.661" y1="819.503" x2="529.071" y2="662.681" gradientUnits="userSpaceOnUse">
<stop stop-color="#0A0B2E"/>
<stop offset="0.5" stop-color="#1A1A47"/>
<stop offset="1" stop-color="#292A60"/>
</linearGradient>
<linearGradient id="paint78_linear_165_58128" x1="468.056" y1="741.793" x2="413.666" y2="788.574" gradientUnits="userSpaceOnUse">
<stop stop-color="#0A0B2E"/>
<stop offset="0.5" stop-color="#1A1A47"/>
<stop offset="1" stop-color="#292A60"/>
</linearGradient>
<linearGradient id="paint79_linear_165_58128" x1="454.188" y1="697.408" x2="411.989" y2="689.832" gradientUnits="userSpaceOnUse">
<stop stop-color="#0F1033"/>
<stop offset="0.5" stop-color="#1C1D4A"/>
<stop offset="1" stop-color="#292A60"/>
</linearGradient>
<linearGradient id="paint80_linear_165_58128" x1="415.858" y1="695.577" x2="452.312" y2="631.352" gradientUnits="userSpaceOnUse">
<stop stop-color="#E59743"/>
<stop offset="0.5" stop-color="#F2A350"/>
<stop offset="1" stop-color="#FEAE58"/>
</linearGradient>
<linearGradient id="paint81_linear_165_58128" x1="458.993" y1="633.607" x2="463.428" y2="632.074" gradientUnits="userSpaceOnUse">
<stop stop-color="#F2F8F3"/>
<stop offset="0.5" stop-color="#E8F3EA"/>
<stop offset="1" stop-color="#DEEDE0"/>
</linearGradient>
<linearGradient id="paint82_linear_165_58128" x1="482.296" y1="661.725" x2="460.392" y2="658.849" gradientUnits="userSpaceOnUse">
<stop stop-color="#4E50A6"/>
<stop offset="0.5" stop-color="#696BC3"/>
<stop offset="1" stop-color="#8486DB"/>
</linearGradient>
<linearGradient id="paint83_linear_165_58128" x1="447.384" y1="652.387" x2="452.796" y2="655.207" gradientUnits="userSpaceOnUse">
<stop stop-color="#595BD4"/>
<stop offset="0.5" stop-color="#6C6EC6"/>
<stop offset="1" stop-color="#8486DB"/>
</linearGradient>
<linearGradient id="paint84_linear_165_58128" x1="471.726" y1="692.891" x2="451.621" y2="684.1" gradientUnits="userSpaceOnUse">
<stop stop-color="#585AB6"/>
<stop offset="0.5" stop-color="#6F70C8"/>
<stop offset="1" stop-color="#8486DB"/>
</linearGradient>
<linearGradient id="paint85_linear_165_58128" x1="544.605" y1="691.356" x2="483.074" y2="660.549" gradientUnits="userSpaceOnUse">
<stop stop-color="#E59743"/>
<stop offset="0.5" stop-color="#F2A350"/>
<stop offset="1" stop-color="#FEAE58"/>
</linearGradient>
<linearGradient id="paint86_linear_165_58128" x1="411.934" y1="636.635" x2="396.944" y2="605.941" gradientUnits="userSpaceOnUse">
<stop stop-color="#9D6F3F"/>
<stop offset="0.5" stop-color="#C88C4C"/>
<stop offset="1" stop-color="#E2A360"/>
</linearGradient>
<linearGradient id="paint87_linear_165_58128" x1="399.518" y1="644.259" x2="390.498" y2="619.638" gradientUnits="userSpaceOnUse">
<stop stop-color="#D1E6D4"/>
<stop offset="0.5" stop-color="#E8F3EA"/>
<stop offset="1" stop-color="white"/>
</linearGradient>
<linearGradient id="paint88_linear_165_58128" x1="393.96" y1="684.99" x2="415.62" y2="654.718" gradientUnits="userSpaceOnUse">
<stop stop-color="#E59743"/>
<stop offset="0.5" stop-color="#F2A350"/>
<stop offset="1" stop-color="#FEAE58"/>
</linearGradient>
<linearGradient id="paint89_linear_165_58128" x1="464.612" y1="626.065" x2="457.291" y2="630.67" gradientUnits="userSpaceOnUse">
<stop stop-color="#D1E6D4"/>
<stop offset="0.5" stop-color="#E8F3EA"/>
<stop offset="1" stop-color="white"/>
</linearGradient>
<linearGradient id="paint90_linear_165_58128" x1="467.192" y1="616.819" x2="446.026" y2="616.454" gradientUnits="userSpaceOnUse">
<stop stop-color="#D1E6D4"/>
<stop offset="0.5" stop-color="#E8F3EA"/>
<stop offset="1" stop-color="white"/>
</linearGradient>
<linearGradient id="paint91_linear_165_58128" x1="466.185" y1="611.282" x2="446.029" y2="598.617" gradientUnits="userSpaceOnUse">
<stop stop-color="#111236"/>
<stop offset="0.5" stop-color="#2D2E52"/>
<stop offset="1" stop-color="#4B4B72"/>
</linearGradient>
<linearGradient id="paint92_linear_165_58128" x1="542.889" y1="734.959" x2="514.8" y2="752.717" gradientUnits="userSpaceOnUse">
<stop stop-color="#D1E6D4"/>
<stop offset="0.5" stop-color="#E8F3EA"/>
<stop offset="1" stop-color="white"/>
</linearGradient>
<linearGradient id="paint93_linear_165_58128" x1="554.201" y1="720.223" x2="516.993" y2="720.241" gradientUnits="userSpaceOnUse">
<stop stop-color="#E59743"/>
<stop offset="0.5" stop-color="#F2A350"/>
<stop offset="1" stop-color="#FEAE58"/>
</linearGradient>
<linearGradient id="paint94_linear_165_58128" x1="550.101" y1="699.419" x2="515.711" y2="708.706" gradientUnits="userSpaceOnUse">
<stop stop-color="#E59743"/>
<stop offset="0.5" stop-color="#F2A350"/>
<stop offset="1" stop-color="#FEAE58"/>
</linearGradient>
<linearGradient id="paint95_linear_165_58128" x1="544.749" y1="659.236" x2="511.896" y2="662.955" gradientUnits="userSpaceOnUse">
<stop stop-color="#E59743"/>
<stop offset="0.5" stop-color="#F2A350"/>
<stop offset="1" stop-color="#FEAE58"/>
</linearGradient>
<linearGradient id="paint96_linear_165_58128" x1="514.996" y1="605.135" x2="493.297" y2="638.969" gradientUnits="userSpaceOnUse">
<stop stop-color="#E59743"/>
<stop offset="0.5" stop-color="#F2A350"/>
<stop offset="1" stop-color="#FEAE58"/>
</linearGradient>
<linearGradient id="paint97_linear_165_58128" x1="10.6842" y1="387.327" x2="-50.9781" y2="355.1" gradientUnits="userSpaceOnUse">
<stop stop-color="#FED5A9"/>
<stop offset="0.5" stop-color="#E5AF76"/>
<stop offset="1" stop-color="#CB8943"/>
</linearGradient>
<linearGradient id="paint98_linear_165_58128" x1="-9.14207" y1="402.416" x2="33.8397" y2="334.018" gradientUnits="userSpaceOnUse">
<stop stop-color="#D8C7B6"/>
<stop offset="0.5" stop-color="#D7EADA"/>
<stop offset="1" stop-color="#F9FBF9"/>
</linearGradient>
</defs>
</svg>
