<svg width="20" height="20" viewBox="0 0 20 20" fill="none" xmlns="http://www.w3.org/2000/svg">
<path d="M19.1308 7.41866C19.0732 7.24885 18.967 7.09964 18.8256 6.98945C18.6841 6.87926 18.5134 6.81292 18.3347 6.79861L13.1055 6.3831L10.8427 1.37409C10.7706 1.21276 10.6534 1.07573 10.5052 0.979546C10.357 0.883361 10.1841 0.832128 10.0074 0.832031C9.83069 0.831934 9.65774 0.882977 9.50941 0.978999C9.36109 1.07502 9.24372 1.21192 9.17148 1.37317L6.90867 6.3831L1.67951 6.79861C1.50382 6.81253 1.33586 6.87677 1.19572 6.98364C1.05559 7.09052 0.949205 7.23551 0.88931 7.40126C0.829415 7.56701 0.818541 7.74651 0.857988 7.91828C0.897436 8.09005 0.985535 8.24682 1.11175 8.36983L4.97605 12.1369L3.60937 18.0549C3.56788 18.234 3.58118 18.4215 3.64755 18.593C3.71392 18.7645 3.8303 18.9121 3.98159 19.0166C4.13288 19.1211 4.31208 19.1777 4.49596 19.1791C4.67983 19.1805 4.85988 19.1266 5.01274 19.0244L10.0071 15.6949L15.0014 19.0244C15.1577 19.1282 15.3419 19.1816 15.5294 19.1774C15.7169 19.1733 15.8986 19.1119 16.0502 19.0014C16.2017 18.8909 16.3158 18.7367 16.3771 18.5595C16.4383 18.3822 16.4438 18.1904 16.3929 18.01L14.7152 12.1397L18.8758 8.39551C19.1482 8.1497 19.2482 7.76629 19.1308 7.41866Z" fill="#F3CD03"/>
</svg>
