<svg width="20" height="20" viewBox="0 0 20 20" fill="none" xmlns="http://www.w3.org/2000/svg">
<path d="M5.03166 12.1384L3.66498 18.0564C3.62266 18.2356 3.63536 18.4234 3.70143 18.5953C3.7675 18.7671 3.88387 18.9151 4.03533 19.0198C4.18679 19.1245 4.36631 19.1811 4.55043 19.1822C4.73456 19.1833 4.91474 19.1288 5.06743 19.0259L10.0618 15.6964L15.0561 19.0259C15.2123 19.1297 15.3966 19.1831 15.5841 19.1789C15.7716 19.1748 15.9533 19.1134 16.1049 19.0029C16.2564 18.8924 16.3705 18.7382 16.4317 18.5609C16.493 18.3837 16.4985 18.1919 16.4476 18.0115L14.7699 12.1412L18.9305 8.39701C19.0638 8.27702 19.1589 8.12061 19.2042 7.94712C19.2495 7.77362 19.243 7.59065 19.1854 7.42083C19.1278 7.25102 19.0217 7.1018 18.8802 6.99164C18.7388 6.88148 18.5681 6.81521 18.3893 6.80102L13.1602 6.3846L10.8974 1.37558C10.8252 1.21429 10.7079 1.07733 10.5597 0.981225C10.4114 0.885122 10.2385 0.833984 10.0618 0.833984C9.88508 0.833984 9.71216 0.885122 9.56389 0.981225C9.41561 1.07733 9.29832 1.21429 9.22617 1.37558L6.96335 6.3846L1.7342 6.8001C1.55851 6.81402 1.39055 6.87826 1.25041 6.98514C1.11027 7.09201 1.00389 7.237 0.943998 7.40275C0.884102 7.56851 0.873228 7.748 0.912676 7.91977C0.952123 8.09154 1.04022 8.24831 1.16643 8.37133L5.03166 12.1384ZM7.64853 8.17045C7.81225 8.15755 7.96948 8.10085 8.10375 8.00628C8.23802 7.91171 8.34438 7.78276 8.41167 7.63295L10.0618 3.98144L11.7119 7.63295C11.7792 7.78276 11.8855 7.91171 12.0198 8.00628C12.1541 8.10085 12.3113 8.15755 12.475 8.17045L16.1183 8.45938L13.118 11.1597C12.8575 11.3945 12.7539 11.7559 12.8492 12.0935L13.9985 16.1155L10.5718 13.8307C10.4213 13.7298 10.2443 13.6758 10.0631 13.6758C9.882 13.6758 9.70495 13.7298 9.55454 13.8307L5.97366 16.2183L6.93675 12.0485C6.97207 11.8952 6.96733 11.7353 6.92299 11.5843C6.87866 11.4333 6.79621 11.2962 6.6836 11.1863L3.89704 8.46947L7.64853 8.17045Z" fill="#F3CD03"/>
</svg>
